<svg width="540" height="67" viewBox="0 0 540 67" fill="none" xmlns="http://www.w3.org/2000/svg">
<mask id="path-1-outside-1_42_3" maskUnits="userSpaceOnUse" x="3" y="6" width="534" height="53" fill="black">
<rect fill="white" x="3" y="6" width="534" height="53"/>
<path d="M9.135 53V14.5H27.67C31.2633 14.5 34.3617 15.0867 36.965 16.26C39.605 17.4333 41.64 19.12 43.07 21.32C44.5 23.4833 45.215 26.05 45.215 29.02C45.215 31.99 44.5 34.5567 43.07 36.72C41.64 38.8833 39.605 40.57 36.965 41.78C34.3617 42.9533 31.2633 43.54 27.67 43.54H16.34L22.115 37.985V53H9.135ZM22.115 39.415L16.34 33.53H26.845C28.6417 33.53 29.9617 33.1267 30.805 32.32C31.685 31.5133 32.125 30.4133 32.125 29.02C32.125 27.6267 31.685 26.5267 30.805 25.72C29.9617 24.9133 28.6417 24.51 26.845 24.51H16.34L22.115 18.625V39.415ZM62.164 53.55C59.7807 53.55 57.6174 53.0733 55.674 52.12C53.7674 51.13 52.264 49.6083 51.164 47.555C50.064 45.465 49.514 42.7883 49.514 39.525V22.915H61.944V37.38C61.944 39.5067 62.2924 40.9917 62.989 41.835C63.6857 42.6783 64.639 43.1 65.849 43.1C66.5824 43.1 67.2607 42.9167 67.884 42.55C68.544 42.1467 69.0757 41.505 69.479 40.625C69.8824 39.7083 70.084 38.5167 70.084 37.05V22.915H82.514V53H70.689V44.31L73.054 46.675C71.9907 49.0217 70.469 50.7633 68.489 51.9C66.5457 53 64.4374 53.55 62.164 53.55ZM86.9273 53V45.85L102.932 28.03L104.967 31.99H87.3673V22.915H115.032V30.065L99.0273 47.885L96.9923 43.925H115.637V53H86.9273ZM118.295 53V45.85L134.3 28.03L136.335 31.99H118.735V22.915H146.4V30.065L130.395 47.885L128.36 43.925H147.005V53H118.295ZM150.762 53V12.19H163.192V53H150.762ZM185.311 53.55C181.645 53.55 178.436 52.8717 175.686 51.515C172.973 50.1583 170.865 48.3067 169.361 45.96C167.858 43.5767 167.106 40.9 167.106 37.93C167.106 34.8867 167.84 32.1917 169.306 29.845C170.81 27.4983 172.845 25.665 175.411 24.345C178.015 23.025 180.93 22.365 184.156 22.365C187.126 22.365 189.858 22.9517 192.351 24.125C194.881 25.2983 196.898 27.04 198.401 29.35C199.941 31.66 200.711 34.52 200.711 37.93C200.711 38.37 200.693 38.865 200.656 39.415C200.62 39.9283 200.583 40.405 200.546 40.845H177.391V34.85H193.946L189.271 36.445C189.271 35.2717 189.051 34.2817 188.611 33.475C188.208 32.6317 187.64 31.99 186.906 31.55C186.173 31.0733 185.293 30.835 184.266 30.835C183.24 30.835 182.341 31.0733 181.571 31.55C180.838 31.99 180.27 32.6317 179.866 33.475C179.463 34.2817 179.261 35.2717 179.261 36.445V38.315C179.261 39.5983 179.518 40.6983 180.031 41.615C180.545 42.5317 181.278 43.2283 182.231 43.705C183.185 44.145 184.34 44.365 185.696 44.365C187.09 44.365 188.226 44.1817 189.106 43.815C190.023 43.4483 190.976 42.8983 191.966 42.165L198.456 48.71C196.99 50.2867 195.175 51.4967 193.011 52.34C190.885 53.1467 188.318 53.55 185.311 53.55ZM219.374 53.88C216.147 53.88 213.03 53.5133 210.024 52.78C207.017 52.0467 204.542 51.0933 202.599 49.92L206.779 40.46C208.612 41.5233 210.647 42.385 212.884 43.045C215.157 43.6683 217.357 43.98 219.484 43.98C220.73 43.98 221.702 43.9067 222.399 43.76C223.132 43.5767 223.664 43.3383 223.994 43.045C224.324 42.715 224.489 42.33 224.489 41.89C224.489 41.1933 224.104 40.6433 223.334 40.24C222.564 39.8367 221.537 39.5067 220.254 39.25C219.007 38.9567 217.632 38.6633 216.129 38.37C214.625 38.04 213.104 37.6183 211.564 37.105C210.06 36.5917 208.667 35.9133 207.384 35.07C206.137 34.2267 205.129 33.1267 204.359 31.77C203.589 30.3767 203.204 28.6533 203.204 26.6C203.204 24.2167 203.864 22.0533 205.184 20.11C206.54 18.13 208.539 16.5533 211.179 15.38C213.855 14.2067 217.174 13.62 221.134 13.62C223.737 13.62 226.304 13.895 228.834 14.445C231.364 14.995 233.637 15.8383 235.654 16.975L231.749 26.38C229.842 25.4267 227.99 24.7117 226.194 24.235C224.434 23.7583 222.71 23.52 221.024 23.52C219.777 23.52 218.787 23.63 218.054 23.85C217.32 24.07 216.789 24.3633 216.459 24.73C216.165 25.0967 216.019 25.5 216.019 25.94C216.019 26.6 216.404 27.1317 217.174 27.535C217.944 27.9017 218.952 28.2133 220.199 28.47C221.482 28.7267 222.875 29.0017 224.379 29.295C225.919 29.5883 227.44 29.9917 228.944 30.505C230.447 31.0183 231.822 31.6967 233.069 32.54C234.352 33.3833 235.379 34.4833 236.149 35.84C236.919 37.1967 237.304 38.8833 237.304 40.9C237.304 43.2467 236.625 45.41 235.269 47.39C233.949 49.3333 231.969 50.91 229.329 52.12C226.689 53.2933 223.37 53.88 219.374 53.88ZM261.681 22.365C263.991 22.365 266.081 22.8417 267.951 23.795C269.821 24.7117 271.288 26.16 272.351 28.14C273.451 30.12 274.001 32.6867 274.001 35.84V53H261.571V37.985C261.571 36.115 261.241 34.795 260.581 34.025C259.921 33.2183 259.023 32.815 257.886 32.815C257.043 32.815 256.255 33.0167 255.521 33.42C254.825 33.7867 254.256 34.41 253.816 35.29C253.413 36.17 253.211 37.3617 253.211 38.865V53H240.781V12.19H253.211V31.715L250.241 29.185C251.415 26.9117 252.991 25.2067 254.971 24.07C256.988 22.9333 259.225 22.365 261.681 22.365ZM295.832 53.55C292.422 53.55 289.397 52.89 286.757 51.57C284.153 50.2133 282.1 48.3617 280.597 46.015C279.093 43.6683 278.342 40.9733 278.342 37.93C278.342 34.8867 279.093 32.1917 280.597 29.845C282.1 27.4983 284.153 25.665 286.757 24.345C289.397 23.025 292.422 22.365 295.832 22.365C299.242 22.365 302.267 23.025 304.907 24.345C307.547 25.665 309.6 27.4983 311.067 29.845C312.57 32.1917 313.322 34.8867 313.322 37.93C313.322 40.9733 312.57 43.6683 311.067 46.015C309.6 48.3617 307.547 50.2133 304.907 51.57C302.267 52.89 299.242 53.55 295.832 53.55ZM295.832 43.87C296.748 43.87 297.573 43.65 298.307 43.21C299.04 42.77 299.627 42.11 300.067 41.23C300.507 40.3133 300.727 39.2133 300.727 37.93C300.727 36.61 300.507 35.5283 300.067 34.685C299.627 33.805 299.04 33.145 298.307 32.705C297.573 32.265 296.748 32.045 295.832 32.045C294.915 32.045 294.09 32.265 293.357 32.705C292.623 33.145 292.037 33.805 291.597 34.685C291.157 35.5283 290.937 36.61 290.937 37.93C290.937 39.2133 291.157 40.3133 291.597 41.23C292.037 42.11 292.623 42.77 293.357 43.21C294.09 43.65 294.915 43.87 295.832 43.87ZM323.776 53L313.326 22.915H325.096L333.016 47.335H327.351L335.656 22.915H346.216L354.136 47.335H348.636L356.831 22.915H367.721L357.271 53H345.171L338.846 33.64H342.476L335.876 53H323.776ZM382.512 53.55C379.908 53.55 377.488 52.9267 375.252 51.68C373.052 50.3967 371.292 48.6 369.972 46.29C368.652 43.9433 367.992 41.1567 367.992 37.93C367.992 34.7033 368.652 31.935 369.972 29.625C371.292 27.2783 373.052 25.4817 375.252 24.235C377.488 22.9883 379.908 22.365 382.512 22.365C385.152 22.365 387.315 22.9333 389.002 24.07C390.688 25.17 391.935 26.875 392.742 29.185C393.548 31.4583 393.952 34.3733 393.952 37.93C393.952 41.5233 393.567 44.475 392.797 46.785C392.063 49.095 390.853 50.8 389.167 51.9C387.517 53 385.298 53.55 382.512 53.55ZM385.482 43.87C386.398 43.87 387.223 43.65 387.957 43.21C388.69 42.77 389.277 42.11 389.717 41.23C390.157 40.3133 390.377 39.2133 390.377 37.93C390.377 36.61 390.157 35.5283 389.717 34.685C389.277 33.805 388.69 33.145 387.957 32.705C387.223 32.265 386.398 32.045 385.482 32.045C384.565 32.045 383.74 32.265 383.007 32.705C382.273 33.145 381.687 33.805 381.247 34.685C380.807 35.5283 380.587 36.61 380.587 37.93C380.587 39.2133 380.807 40.3133 381.247 41.23C381.687 42.11 382.273 42.77 383.007 43.21C383.74 43.65 384.565 43.87 385.482 43.87ZM390.762 53V48.93L390.707 37.93L390.157 26.93V12.19H402.587V53H390.762ZM423.986 53.55C420.576 53.55 417.551 52.89 414.911 51.57C412.307 50.2133 410.254 48.3617 408.751 46.015C407.247 43.6683 406.496 40.9733 406.496 37.93C406.496 34.8867 407.247 32.1917 408.751 29.845C410.254 27.4983 412.307 25.665 414.911 24.345C417.551 23.025 420.576 22.365 423.986 22.365C427.396 22.365 430.421 23.025 433.061 24.345C435.701 25.665 437.754 27.4983 439.221 29.845C440.724 32.1917 441.476 34.8867 441.476 37.93C441.476 40.9733 440.724 43.6683 439.221 46.015C437.754 48.3617 435.701 50.2133 433.061 51.57C430.421 52.89 427.396 53.55 423.986 53.55ZM423.986 43.87C424.902 43.87 425.727 43.65 426.461 43.21C427.194 42.77 427.781 42.11 428.221 41.23C428.661 40.3133 428.881 39.2133 428.881 37.93C428.881 36.61 428.661 35.5283 428.221 34.685C427.781 33.805 427.194 33.145 426.461 32.705C425.727 32.265 424.902 32.045 423.986 32.045C423.069 32.045 422.244 32.265 421.511 32.705C420.777 33.145 420.191 33.805 419.751 34.685C419.311 35.5283 419.091 36.61 419.091 37.93C419.091 39.2133 419.311 40.3133 419.751 41.23C420.191 42.11 420.777 42.77 421.511 43.21C422.244 43.65 423.069 43.87 423.986 43.87ZM451.931 53L441.481 22.915H453.251L461.171 47.335H455.506L463.811 22.915H474.371L482.291 47.335H476.791L484.986 22.915H495.876L485.426 53H473.326L467.001 33.64H470.631L464.031 53H451.931ZM519.171 22.365C521.481 22.365 523.571 22.8417 525.441 23.795C527.311 24.7117 528.778 26.16 529.841 28.14C530.941 30.12 531.491 32.6867 531.491 35.84V53H519.061V37.985C519.061 36.115 518.731 34.795 518.071 34.025C517.411 33.2183 516.513 32.815 515.376 32.815C514.533 32.815 513.745 33.0167 513.011 33.42C512.315 33.7867 511.746 34.41 511.306 35.29C510.903 36.17 510.701 37.3617 510.701 38.865V53H498.271V22.915H510.096V31.715L507.731 29.185C508.905 26.9117 510.481 25.2067 512.461 24.07C514.478 22.9333 516.715 22.365 519.171 22.365Z"/>
</mask>
<path d="M9.135 53V14.5H27.67C31.2633 14.5 34.3617 15.0867 36.965 16.26C39.605 17.4333 41.64 19.12 43.07 21.32C44.5 23.4833 45.215 26.05 45.215 29.02C45.215 31.99 44.5 34.5567 43.07 36.72C41.64 38.8833 39.605 40.57 36.965 41.78C34.3617 42.9533 31.2633 43.54 27.67 43.54H16.34L22.115 37.985V53H9.135ZM22.115 39.415L16.34 33.53H26.845C28.6417 33.53 29.9617 33.1267 30.805 32.32C31.685 31.5133 32.125 30.4133 32.125 29.02C32.125 27.6267 31.685 26.5267 30.805 25.72C29.9617 24.9133 28.6417 24.51 26.845 24.51H16.34L22.115 18.625V39.415ZM62.164 53.55C59.7807 53.55 57.6174 53.0733 55.674 52.12C53.7674 51.13 52.264 49.6083 51.164 47.555C50.064 45.465 49.514 42.7883 49.514 39.525V22.915H61.944V37.38C61.944 39.5067 62.2924 40.9917 62.989 41.835C63.6857 42.6783 64.639 43.1 65.849 43.1C66.5824 43.1 67.2607 42.9167 67.884 42.55C68.544 42.1467 69.0757 41.505 69.479 40.625C69.8824 39.7083 70.084 38.5167 70.084 37.05V22.915H82.514V53H70.689V44.31L73.054 46.675C71.9907 49.0217 70.469 50.7633 68.489 51.9C66.5457 53 64.4374 53.55 62.164 53.55ZM86.9273 53V45.85L102.932 28.03L104.967 31.99H87.3673V22.915H115.032V30.065L99.0273 47.885L96.9923 43.925H115.637V53H86.9273ZM118.295 53V45.85L134.3 28.03L136.335 31.99H118.735V22.915H146.4V30.065L130.395 47.885L128.36 43.925H147.005V53H118.295ZM150.762 53V12.19H163.192V53H150.762ZM185.311 53.55C181.645 53.55 178.436 52.8717 175.686 51.515C172.973 50.1583 170.865 48.3067 169.361 45.96C167.858 43.5767 167.106 40.9 167.106 37.93C167.106 34.8867 167.84 32.1917 169.306 29.845C170.81 27.4983 172.845 25.665 175.411 24.345C178.015 23.025 180.93 22.365 184.156 22.365C187.126 22.365 189.858 22.9517 192.351 24.125C194.881 25.2983 196.898 27.04 198.401 29.35C199.941 31.66 200.711 34.52 200.711 37.93C200.711 38.37 200.693 38.865 200.656 39.415C200.62 39.9283 200.583 40.405 200.546 40.845H177.391V34.85H193.946L189.271 36.445C189.271 35.2717 189.051 34.2817 188.611 33.475C188.208 32.6317 187.64 31.99 186.906 31.55C186.173 31.0733 185.293 30.835 184.266 30.835C183.24 30.835 182.341 31.0733 181.571 31.55C180.838 31.99 180.27 32.6317 179.866 33.475C179.463 34.2817 179.261 35.2717 179.261 36.445V38.315C179.261 39.5983 179.518 40.6983 180.031 41.615C180.545 42.5317 181.278 43.2283 182.231 43.705C183.185 44.145 184.34 44.365 185.696 44.365C187.09 44.365 188.226 44.1817 189.106 43.815C190.023 43.4483 190.976 42.8983 191.966 42.165L198.456 48.71C196.99 50.2867 195.175 51.4967 193.011 52.34C190.885 53.1467 188.318 53.55 185.311 53.55ZM219.374 53.88C216.147 53.88 213.03 53.5133 210.024 52.78C207.017 52.0467 204.542 51.0933 202.599 49.92L206.779 40.46C208.612 41.5233 210.647 42.385 212.884 43.045C215.157 43.6683 217.357 43.98 219.484 43.98C220.73 43.98 221.702 43.9067 222.399 43.76C223.132 43.5767 223.664 43.3383 223.994 43.045C224.324 42.715 224.489 42.33 224.489 41.89C224.489 41.1933 224.104 40.6433 223.334 40.24C222.564 39.8367 221.537 39.5067 220.254 39.25C219.007 38.9567 217.632 38.6633 216.129 38.37C214.625 38.04 213.104 37.6183 211.564 37.105C210.06 36.5917 208.667 35.9133 207.384 35.07C206.137 34.2267 205.129 33.1267 204.359 31.77C203.589 30.3767 203.204 28.6533 203.204 26.6C203.204 24.2167 203.864 22.0533 205.184 20.11C206.54 18.13 208.539 16.5533 211.179 15.38C213.855 14.2067 217.174 13.62 221.134 13.62C223.737 13.62 226.304 13.895 228.834 14.445C231.364 14.995 233.637 15.8383 235.654 16.975L231.749 26.38C229.842 25.4267 227.99 24.7117 226.194 24.235C224.434 23.7583 222.71 23.52 221.024 23.52C219.777 23.52 218.787 23.63 218.054 23.85C217.32 24.07 216.789 24.3633 216.459 24.73C216.165 25.0967 216.019 25.5 216.019 25.94C216.019 26.6 216.404 27.1317 217.174 27.535C217.944 27.9017 218.952 28.2133 220.199 28.47C221.482 28.7267 222.875 29.0017 224.379 29.295C225.919 29.5883 227.44 29.9917 228.944 30.505C230.447 31.0183 231.822 31.6967 233.069 32.54C234.352 33.3833 235.379 34.4833 236.149 35.84C236.919 37.1967 237.304 38.8833 237.304 40.9C237.304 43.2467 236.625 45.41 235.269 47.39C233.949 49.3333 231.969 50.91 229.329 52.12C226.689 53.2933 223.37 53.88 219.374 53.88ZM261.681 22.365C263.991 22.365 266.081 22.8417 267.951 23.795C269.821 24.7117 271.288 26.16 272.351 28.14C273.451 30.12 274.001 32.6867 274.001 35.84V53H261.571V37.985C261.571 36.115 261.241 34.795 260.581 34.025C259.921 33.2183 259.023 32.815 257.886 32.815C257.043 32.815 256.255 33.0167 255.521 33.42C254.825 33.7867 254.256 34.41 253.816 35.29C253.413 36.17 253.211 37.3617 253.211 38.865V53H240.781V12.19H253.211V31.715L250.241 29.185C251.415 26.9117 252.991 25.2067 254.971 24.07C256.988 22.9333 259.225 22.365 261.681 22.365ZM295.832 53.55C292.422 53.55 289.397 52.89 286.757 51.57C284.153 50.2133 282.1 48.3617 280.597 46.015C279.093 43.6683 278.342 40.9733 278.342 37.93C278.342 34.8867 279.093 32.1917 280.597 29.845C282.1 27.4983 284.153 25.665 286.757 24.345C289.397 23.025 292.422 22.365 295.832 22.365C299.242 22.365 302.267 23.025 304.907 24.345C307.547 25.665 309.6 27.4983 311.067 29.845C312.57 32.1917 313.322 34.8867 313.322 37.93C313.322 40.9733 312.57 43.6683 311.067 46.015C309.6 48.3617 307.547 50.2133 304.907 51.57C302.267 52.89 299.242 53.55 295.832 53.55ZM295.832 43.87C296.748 43.87 297.573 43.65 298.307 43.21C299.04 42.77 299.627 42.11 300.067 41.23C300.507 40.3133 300.727 39.2133 300.727 37.93C300.727 36.61 300.507 35.5283 300.067 34.685C299.627 33.805 299.04 33.145 298.307 32.705C297.573 32.265 296.748 32.045 295.832 32.045C294.915 32.045 294.09 32.265 293.357 32.705C292.623 33.145 292.037 33.805 291.597 34.685C291.157 35.5283 290.937 36.61 290.937 37.93C290.937 39.2133 291.157 40.3133 291.597 41.23C292.037 42.11 292.623 42.77 293.357 43.21C294.09 43.65 294.915 43.87 295.832 43.87ZM323.776 53L313.326 22.915H325.096L333.016 47.335H327.351L335.656 22.915H346.216L354.136 47.335H348.636L356.831 22.915H367.721L357.271 53H345.171L338.846 33.64H342.476L335.876 53H323.776ZM382.512 53.55C379.908 53.55 377.488 52.9267 375.252 51.68C373.052 50.3967 371.292 48.6 369.972 46.29C368.652 43.9433 367.992 41.1567 367.992 37.93C367.992 34.7033 368.652 31.935 369.972 29.625C371.292 27.2783 373.052 25.4817 375.252 24.235C377.488 22.9883 379.908 22.365 382.512 22.365C385.152 22.365 387.315 22.9333 389.002 24.07C390.688 25.17 391.935 26.875 392.742 29.185C393.548 31.4583 393.952 34.3733 393.952 37.93C393.952 41.5233 393.567 44.475 392.797 46.785C392.063 49.095 390.853 50.8 389.167 51.9C387.517 53 385.298 53.55 382.512 53.55ZM385.482 43.87C386.398 43.87 387.223 43.65 387.957 43.21C388.69 42.77 389.277 42.11 389.717 41.23C390.157 40.3133 390.377 39.2133 390.377 37.93C390.377 36.61 390.157 35.5283 389.717 34.685C389.277 33.805 388.69 33.145 387.957 32.705C387.223 32.265 386.398 32.045 385.482 32.045C384.565 32.045 383.74 32.265 383.007 32.705C382.273 33.145 381.687 33.805 381.247 34.685C380.807 35.5283 380.587 36.61 380.587 37.93C380.587 39.2133 380.807 40.3133 381.247 41.23C381.687 42.11 382.273 42.77 383.007 43.21C383.74 43.65 384.565 43.87 385.482 43.87ZM390.762 53V48.93L390.707 37.93L390.157 26.93V12.19H402.587V53H390.762ZM423.986 53.55C420.576 53.55 417.551 52.89 414.911 51.57C412.307 50.2133 410.254 48.3617 408.751 46.015C407.247 43.6683 406.496 40.9733 406.496 37.93C406.496 34.8867 407.247 32.1917 408.751 29.845C410.254 27.4983 412.307 25.665 414.911 24.345C417.551 23.025 420.576 22.365 423.986 22.365C427.396 22.365 430.421 23.025 433.061 24.345C435.701 25.665 437.754 27.4983 439.221 29.845C440.724 32.1917 441.476 34.8867 441.476 37.93C441.476 40.9733 440.724 43.6683 439.221 46.015C437.754 48.3617 435.701 50.2133 433.061 51.57C430.421 52.89 427.396 53.55 423.986 53.55ZM423.986 43.87C424.902 43.87 425.727 43.65 426.461 43.21C427.194 42.77 427.781 42.11 428.221 41.23C428.661 40.3133 428.881 39.2133 428.881 37.93C428.881 36.61 428.661 35.5283 428.221 34.685C427.781 33.805 427.194 33.145 426.461 32.705C425.727 32.265 424.902 32.045 423.986 32.045C423.069 32.045 422.244 32.265 421.511 32.705C420.777 33.145 420.191 33.805 419.751 34.685C419.311 35.5283 419.091 36.61 419.091 37.93C419.091 39.2133 419.311 40.3133 419.751 41.23C420.191 42.11 420.777 42.77 421.511 43.21C422.244 43.65 423.069 43.87 423.986 43.87ZM451.931 53L441.481 22.915H453.251L461.171 47.335H455.506L463.811 22.915H474.371L482.291 47.335H476.791L484.986 22.915H495.876L485.426 53H473.326L467.001 33.64H470.631L464.031 53H451.931ZM519.171 22.365C521.481 22.365 523.571 22.8417 525.441 23.795C527.311 24.7117 528.778 26.16 529.841 28.14C530.941 30.12 531.491 32.6867 531.491 35.84V53H519.061V37.985C519.061 36.115 518.731 34.795 518.071 34.025C517.411 33.2183 516.513 32.815 515.376 32.815C514.533 32.815 513.745 33.0167 513.011 33.42C512.315 33.7867 511.746 34.41 511.306 35.29C510.903 36.17 510.701 37.3617 510.701 38.865V53H498.271V22.915H510.096V31.715L507.731 29.185C508.905 26.9117 510.481 25.2067 512.461 24.07C514.478 22.9333 516.715 22.365 519.171 22.365Z" fill="white"/>
<path d="M9.135 53H4.135V58H9.135V53ZM9.135 14.5V9.5H4.135V14.5H9.135ZM36.965 16.26L34.9105 20.8184L34.9224 20.8238L34.9343 20.8291L36.965 16.26ZM43.07 21.32L38.8778 24.0449L38.8883 24.0611L38.8989 24.0772L43.07 21.32ZM43.07 36.72L38.8989 33.9628V33.9628L43.07 36.72ZM36.965 41.78L39.0195 46.3384L39.0339 46.3319L39.0483 46.3253L36.965 41.78ZM16.34 43.54L12.8738 39.9365L3.92953 48.54H16.34V43.54ZM22.115 37.985H27.115V26.2378L18.6488 34.3815L22.115 37.985ZM22.115 53V58H27.115V53H22.115ZM22.115 39.415L18.5463 42.917L27.115 51.649V39.415H22.115ZM16.34 33.53V28.53H4.42816L12.7713 37.032L16.34 33.53ZM30.805 32.32L27.4264 28.6342L27.3872 28.6701L27.3489 28.7068L30.805 32.32ZM30.805 25.72L27.3489 29.3332L27.3872 29.3699L27.4264 29.4058L30.805 25.72ZM16.34 24.51L12.7713 21.008L4.42816 29.51H16.34V24.51ZM22.115 18.625H27.115V6.39103L18.5463 15.123L22.115 18.625ZM14.135 53V14.5H4.135V53H14.135ZM9.135 19.5H27.67V9.5H9.135V19.5ZM27.67 19.5C30.7322 19.5 33.0971 20.0011 34.9105 20.8184L39.0195 11.7016C35.6263 10.1722 31.7945 9.5 27.67 9.5V19.5ZM34.9343 20.8291C36.7833 21.6508 38.0275 22.7368 38.8778 24.0449L47.2622 18.5951C45.2525 15.5032 42.4267 13.2158 38.9957 11.6909L34.9343 20.8291ZM38.8989 24.0772C39.7128 25.3084 40.215 26.8839 40.215 29.02H50.215C50.215 25.2161 49.2872 21.6583 47.2411 18.5628L38.8989 24.0772ZM40.215 29.02C40.215 31.1561 39.7128 32.7316 38.8989 33.9628L47.2411 39.4772C49.2872 36.3817 50.215 32.8239 50.215 29.02H40.215ZM38.8989 33.9628C38.0442 35.2559 36.7772 36.3659 34.8817 37.2347L39.0483 46.3253C42.4328 44.7741 45.2358 42.5108 47.2411 39.4772L38.8989 33.9628ZM34.9105 37.2216C33.0971 38.0389 30.7322 38.54 27.67 38.54V48.54C31.7945 48.54 35.6263 47.8678 39.0195 46.3384L34.9105 37.2216ZM27.67 38.54H16.34V48.54H27.67V38.54ZM19.8062 47.1435L25.5812 41.5885L18.6488 34.3815L12.8738 39.9365L19.8062 47.1435ZM17.115 37.985V53H27.115V37.985H17.115ZM22.115 48H9.135V58H22.115V48ZM25.6837 35.913L19.9087 30.028L12.7713 37.032L18.5463 42.917L25.6837 35.913ZM16.34 38.53H26.845V28.53H16.34V38.53ZM26.845 38.53C29.2544 38.53 32.0931 38.007 34.2611 35.9332L27.3489 28.7068C27.5862 28.4798 27.77 28.4309 27.7214 28.4457C27.6529 28.4667 27.3888 28.53 26.845 28.53V38.53ZM34.1836 36.0058C36.2718 34.0916 37.125 31.5584 37.125 29.02H27.125C27.125 29.1906 27.0987 29.1679 27.1526 29.033C27.179 28.9671 27.2182 28.891 27.2715 28.8139C27.3248 28.737 27.3799 28.6769 27.4264 28.6342L34.1836 36.0058ZM37.125 29.02C37.125 26.4816 36.2718 23.9484 34.1836 22.0342L27.4264 29.4058C27.3799 29.3631 27.3248 29.303 27.2715 29.226C27.2182 29.149 27.179 29.0729 27.1526 29.007C27.0987 28.8721 27.125 28.8494 27.125 29.02H37.125ZM34.2611 22.1068C32.0931 20.033 29.2544 19.51 26.845 19.51V29.51C27.3888 29.51 27.6529 29.5733 27.7214 29.5943C27.77 29.6091 27.5862 29.5602 27.3489 29.3332L34.2611 22.1068ZM26.845 19.51H16.34V29.51H26.845V19.51ZM19.9087 28.012L25.6837 22.127L18.5463 15.123L12.7713 21.008L19.9087 28.012ZM17.115 18.625V39.415H27.115V18.625H17.115ZM55.674 52.12L53.3699 56.5575L53.4206 56.5838L53.4719 56.6089L55.674 52.12ZM51.164 47.555L46.7394 49.8837L46.748 49.9L46.7566 49.9161L51.164 47.555ZM49.514 22.915V17.915H44.514V22.915H49.514ZM61.944 22.915H66.944V17.915H61.944V22.915ZM67.884 42.55L70.4191 46.8597L70.4554 46.8383L70.4913 46.8164L67.884 42.55ZM69.479 40.625L74.0243 42.7083L74.0402 42.6736L74.0556 42.6387L69.479 40.625ZM70.084 22.915V17.915H65.084V22.915H70.084ZM82.514 22.915H87.514V17.915H82.514V22.915ZM82.514 53V58H87.514V53H82.514ZM70.689 53H65.689V58H70.689V53ZM70.689 44.31L74.2246 40.7745L65.689 32.2389V44.31H70.689ZM73.054 46.675L77.6083 48.7387L79.0366 45.5865L76.5896 43.1395L73.054 46.675ZM68.489 51.9L70.952 56.2513L70.9652 56.2438L70.9784 56.2363L68.489 51.9ZM62.164 48.55C60.4659 48.55 59.0671 48.2153 57.8761 47.6311L53.4719 56.6089C56.1676 57.9314 59.0955 58.55 62.164 58.55V48.55ZM57.9781 47.6825C57.0417 47.1963 56.2376 46.4375 55.5714 45.1939L46.7566 49.9161C48.2904 52.7792 50.4931 55.0637 53.3699 56.5575L57.9781 47.6825ZM55.5886 45.2263C54.983 44.0755 54.514 42.2704 54.514 39.525H44.514C44.514 43.3063 45.1451 46.8545 46.7394 49.8837L55.5886 45.2263ZM54.514 39.525V22.915H44.514V39.525H54.514ZM49.514 27.915H61.944V17.915H49.514V27.915ZM56.944 22.915V37.38H66.944V22.915H56.944ZM56.944 37.38C56.944 39.7276 57.263 42.7542 59.1342 45.0194L66.8438 38.6506C67.1402 39.0094 67.1367 39.2177 67.0731 38.9469C67.0136 38.6929 66.944 38.1973 66.944 37.38H56.944ZM59.1342 45.0194C60.8893 47.144 63.3269 48.1 65.849 48.1V38.1C65.8295 38.1 65.9944 38.0984 66.2491 38.2111C66.5179 38.33 66.7226 38.5039 66.8438 38.6506L59.1342 45.0194ZM65.849 48.1C67.4607 48.1 69.0161 47.685 70.4191 46.8597L65.3489 38.2403C65.4112 38.2037 65.4985 38.164 65.6032 38.1357C65.7076 38.1075 65.7944 38.1 65.849 38.1V48.1ZM70.4913 46.8164C72.1914 45.7774 73.311 44.2646 74.0243 42.7083L64.9337 38.5417C64.8857 38.6465 64.8736 38.6414 64.9277 38.5762C64.9866 38.505 65.1008 38.3911 65.2768 38.2836L70.4913 46.8164ZM74.0556 42.6387C74.8366 40.8637 75.084 38.9148 75.084 37.05H65.084C65.084 38.1185 64.9281 38.5529 64.9025 38.6113L74.0556 42.6387ZM75.084 37.05V22.915H65.084V37.05H75.084ZM70.084 27.915H82.514V17.915H70.084V27.915ZM77.514 22.915V53H87.514V22.915H77.514ZM82.514 48H70.689V58H82.514V48ZM75.689 53V44.31H65.689V53H75.689ZM67.1535 47.8455L69.5185 50.2105L76.5896 43.1395L74.2246 40.7745L67.1535 47.8455ZM68.4998 44.6113C67.8113 46.1306 66.9553 47.0151 65.9997 47.5637L70.9784 56.2363C73.9827 54.5115 76.17 51.9127 77.6083 48.7387L68.4998 44.6113ZM66.026 47.5487C64.848 48.2155 63.5904 48.55 62.164 48.55V58.55C65.2843 58.55 68.2434 57.7845 70.952 56.2513L66.026 47.5487ZM86.9273 53H81.9273V58H86.9273V53ZM86.9273 45.85L83.2075 42.509L81.9273 43.9343V45.85H86.9273ZM102.932 28.03L107.38 25.7447L104.062 19.2893L99.2124 24.689L102.932 28.03ZM104.967 31.99V36.99H113.158L109.414 29.7047L104.967 31.99ZM87.3673 31.99H82.3673V36.99H87.3673V31.99ZM87.3673 22.915V17.915H82.3673V22.915H87.3673ZM115.032 22.915H120.032V17.915H115.032V22.915ZM115.032 30.065L118.752 33.406L120.032 31.9807V30.065H115.032ZM99.0273 47.885L94.5802 50.1703L97.8975 56.6257L102.747 51.226L99.0273 47.885ZM96.9923 43.925V38.925H88.8013L92.5452 46.2103L96.9923 43.925ZM115.637 43.925H120.637V38.925H115.637V43.925ZM115.637 53V58H120.637V53H115.637ZM91.9273 53V45.85H81.9273V53H91.9273ZM90.6472 49.191L106.652 31.371L99.2124 24.689L83.2075 42.509L90.6472 49.191ZM98.4852 30.3153L100.52 34.2753L109.414 29.7047L107.38 25.7447L98.4852 30.3153ZM104.967 26.99H87.3673V36.99H104.967V26.99ZM92.3673 31.99V22.915H82.3673V31.99H92.3673ZM87.3673 27.915H115.032V17.915H87.3673V27.915ZM110.032 22.915V30.065H120.032V22.915H110.032ZM111.312 26.724L95.3074 44.544L102.747 51.226L118.752 33.406L111.312 26.724ZM103.475 45.5997L101.439 41.6397L92.5452 46.2103L94.5802 50.1703L103.475 45.5997ZM96.9923 48.925H115.637V38.925H96.9923V48.925ZM110.637 43.925V53H120.637V43.925H110.637ZM115.637 48H86.9273V58H115.637V48ZM118.295 53H113.295V58H118.295V53ZM118.295 45.85L114.575 42.509L113.295 43.9343V45.85H118.295ZM134.3 28.03L138.747 25.7447L135.429 19.2893L130.58 24.689L134.3 28.03ZM136.335 31.99V36.99H144.526L140.782 29.7047L136.335 31.99ZM118.735 31.99H113.735V36.99H118.735V31.99ZM118.735 22.915V17.915H113.735V22.915H118.735ZM146.4 22.915H151.4V17.915H146.4V22.915ZM146.4 30.065L150.119 33.406L151.4 31.9807V30.065H146.4ZM130.395 47.885L125.947 50.1703L129.265 56.6257L134.114 51.226L130.395 47.885ZM128.36 43.925V38.925H120.169L123.912 46.2103L128.36 43.925ZM147.005 43.925H152.005V38.925H147.005V43.925ZM147.005 53V58H152.005V53H147.005ZM123.295 53V45.85H113.295V53H123.295ZM122.014 49.191L138.019 31.371L130.58 24.689L114.575 42.509L122.014 49.191ZM129.852 30.3153L131.887 34.2753L140.782 29.7047L138.747 25.7447L129.852 30.3153ZM136.335 26.99H118.735V36.99H136.335V26.99ZM123.735 31.99V22.915H113.735V31.99H123.735ZM118.735 27.915H146.4V17.915H118.735V27.915ZM141.4 22.915V30.065H151.4V22.915H141.4ZM142.68 26.724L126.675 44.544L134.114 51.226L150.119 33.406L142.68 26.724ZM134.842 45.5997L132.807 41.6397L123.912 46.2103L125.947 50.1703L134.842 45.5997ZM128.36 48.925H147.005V38.925H128.36V48.925ZM142.005 43.925V53H152.005V43.925H142.005ZM147.005 48H118.295V58H147.005V48ZM150.762 53H145.762V58H150.762V53ZM150.762 12.19V7.19H145.762V12.19H150.762ZM163.192 12.19H168.192V7.19H163.192V12.19ZM163.192 53V58H168.192V53H163.192ZM155.762 53V12.19H145.762V53H155.762ZM150.762 17.19H163.192V7.19H150.762V17.19ZM158.192 12.19V53H168.192V12.19H158.192ZM163.192 48H150.762V58H163.192V48ZM175.686 51.515L173.45 55.9871L173.462 55.9931L173.474 55.999L175.686 51.515ZM169.361 45.96L165.132 48.6275L165.142 48.6424L165.151 48.6571L169.361 45.96ZM169.306 29.845L165.096 27.1479L165.081 27.1714L165.066 27.195L169.306 29.845ZM175.411 24.345L173.15 19.8855L173.137 19.892L173.124 19.8986L175.411 24.345ZM192.351 24.125L190.222 28.6491L190.235 28.6551L190.248 28.6609L192.351 24.125ZM198.401 29.35L194.21 32.0773L194.226 32.1005L194.241 32.1235L198.401 29.35ZM200.656 39.415L205.643 39.7712L205.644 39.7594L205.645 39.7476L200.656 39.415ZM200.546 40.845V45.845H205.147L205.529 41.2602L200.546 40.845ZM177.391 40.845H172.391V45.845H177.391V40.845ZM177.391 34.85V29.85H172.391V34.85H177.391ZM193.946 34.85L195.561 39.5822L193.946 29.85V34.85ZM189.271 36.445H184.271V43.4339L190.886 41.1772L189.271 36.445ZM188.611 33.475L184.101 35.6323L184.158 35.7524L184.222 35.8693L188.611 33.475ZM186.906 31.55L184.181 35.7422L184.257 35.7912L184.334 35.8375L186.906 31.55ZM181.571 31.55L184.144 35.8375L184.173 35.8196L184.203 35.8013L181.571 31.55ZM179.866 33.475L184.338 35.7111L184.358 35.6718L184.377 35.6323L179.866 33.475ZM180.031 41.615L184.394 39.172L180.031 41.615ZM182.231 43.705L179.995 48.1771L180.065 48.2121L180.136 48.2448L182.231 43.705ZM189.106 43.815L187.249 39.1726L187.216 39.1859L187.183 39.1996L189.106 43.815ZM191.966 42.165L195.517 38.6444L192.469 35.5705L188.99 38.1472L191.966 42.165ZM198.456 48.71L202.117 52.1155L205.388 48.5994L202.007 45.1894L198.456 48.71ZM193.011 52.34L194.784 57.015L194.806 57.0069L194.827 56.9985L193.011 52.34ZM185.311 48.55C182.263 48.55 179.838 47.9881 177.898 47.031L173.474 55.999C177.034 57.7553 181.026 58.55 185.311 58.55V48.55ZM177.922 47.0429C175.941 46.0523 174.546 44.7843 173.571 43.2629L165.151 48.6571C167.183 51.829 170.005 54.2643 173.45 55.9871L177.922 47.0429ZM173.59 43.2925C172.618 41.7517 172.106 40.0093 172.106 37.93H162.106C162.106 41.7907 163.097 45.4016 165.132 48.6275L173.59 43.2925ZM172.106 37.93C172.106 35.727 172.625 33.9688 173.546 32.495L165.066 27.195C163.054 30.4145 162.106 34.0463 162.106 37.93H172.106ZM173.516 32.5421C174.527 30.9651 175.886 29.7232 177.698 28.7914L173.124 19.8986C169.803 21.6068 167.092 24.0315 165.096 27.1479L173.516 32.5421ZM177.672 28.8045C179.504 27.876 181.631 27.365 184.156 27.365V17.365C180.228 17.365 176.525 18.174 173.15 19.8855L177.672 28.8045ZM184.156 27.365C186.448 27.365 188.446 27.8131 190.222 28.6491L194.48 19.6009C191.27 18.0903 187.804 17.365 184.156 17.365V27.365ZM190.248 28.6609C191.937 29.4442 193.226 30.564 194.21 32.0773L202.592 26.6227C200.57 23.516 197.826 21.1524 194.455 19.5891L190.248 28.6609ZM194.241 32.1235C195.12 33.4417 195.711 35.2801 195.711 37.93H205.711C205.711 33.7599 204.763 29.8783 202.561 26.5765L194.241 32.1235ZM195.711 37.93C195.711 38.2355 195.698 38.6169 195.667 39.0824L205.645 39.7476C205.687 39.1131 205.711 38.5045 205.711 37.93H195.711ZM195.669 39.0588C195.633 39.5555 195.598 40.0123 195.563 40.4298L205.529 41.2602C205.567 40.7977 205.606 40.3011 205.643 39.7712L195.669 39.0588ZM200.546 35.845H177.391V45.845H200.546V35.845ZM182.391 40.845V34.85H172.391V40.845H182.391ZM177.391 39.85H193.946V29.85H177.391V39.85ZM192.332 30.1178L187.657 31.7128L190.886 41.1772L195.561 39.5822L192.332 30.1178ZM194.271 36.445C194.271 34.6613 193.937 32.7977 193.001 31.0807L184.222 35.8693C184.165 35.7656 184.271 35.882 184.271 36.445H194.271ZM193.122 31.3177C192.336 29.6755 191.131 28.254 189.479 27.2625L184.334 35.8375C184.262 35.7944 184.193 35.7366 184.139 35.6764C184.089 35.6189 184.082 35.5927 184.101 35.6323L193.122 31.3177ZM189.631 27.3578C187.954 26.2677 186.089 25.835 184.266 25.835V35.835C184.393 35.835 184.425 35.8496 184.389 35.8399C184.372 35.8351 184.341 35.8255 184.303 35.8084C184.264 35.7911 184.222 35.769 184.181 35.7422L189.631 27.3578ZM184.266 25.835C182.437 25.835 180.602 26.2696 178.939 27.2987L184.203 35.8013C184.183 35.8136 184.162 35.8244 184.142 35.8329C184.122 35.8414 184.109 35.8454 184.105 35.8466C184.094 35.8493 184.141 35.835 184.266 35.835V25.835ZM178.999 27.2625C177.346 28.254 176.141 29.6755 175.355 31.3177L184.377 35.6323C184.396 35.5927 184.389 35.6189 184.338 35.6764C184.285 35.7366 184.215 35.7944 184.144 35.8375L178.999 27.2625ZM175.394 31.2389C174.555 32.9166 174.261 34.7207 174.261 36.445H184.261C184.261 35.8226 184.37 35.6467 184.338 35.7111L175.394 31.2389ZM174.261 36.445V38.315H184.261V36.445H174.261ZM174.261 38.315C174.261 40.2657 174.654 42.2464 175.669 44.058L184.394 39.172C184.382 39.1503 184.261 38.931 184.261 38.315H174.261ZM175.669 44.058C176.679 45.8623 178.16 47.2593 179.995 48.1771L184.467 39.2329C184.436 39.2172 184.419 39.2061 184.413 39.2017C184.407 39.1975 184.407 39.1969 184.41 39.2C184.413 39.2031 184.415 39.2052 184.414 39.204C184.413 39.2027 184.406 39.1932 184.394 39.172L175.669 44.058ZM180.136 48.2448C181.908 49.0629 183.819 49.365 185.696 49.365V39.365C184.86 39.365 184.461 39.2271 184.326 39.1652L180.136 48.2448ZM185.696 49.365C187.471 49.365 189.327 49.1398 191.029 48.4304L187.183 39.1996C187.126 39.2236 186.708 39.365 185.696 39.365V49.365ZM190.963 48.4574C192.362 47.8978 193.689 47.1113 194.942 46.1828L188.99 38.1472C188.264 38.6854 187.684 38.9989 187.249 39.1726L190.963 48.4574ZM188.416 45.6856L194.906 52.2306L202.007 45.1894L195.517 38.6444L188.416 45.6856ZM194.795 45.3045C193.881 46.2876 192.713 47.0898 191.195 47.6815L194.827 56.9985C197.636 55.9036 200.098 54.2858 202.117 52.1155L194.795 45.3045ZM191.238 47.665C189.828 48.2 187.896 48.55 185.311 48.55V58.55C188.74 58.55 191.941 58.0934 194.784 57.015L191.238 47.665ZM210.024 52.78L211.209 47.9224L210.024 52.78ZM202.599 49.92L198.025 47.8992L196.246 51.9253L200.014 54.2003L202.599 49.92ZM206.779 40.46L209.287 36.1348L204.461 33.3353L202.205 38.4392L206.779 40.46ZM212.884 43.045L211.469 47.8406L211.515 47.8542L211.562 47.867L212.884 43.045ZM222.399 43.76L223.429 48.6527L223.521 48.6334L223.611 48.6107L222.399 43.76ZM223.994 43.045L227.316 46.782L227.425 46.6844L227.529 46.5805L223.994 43.045ZM223.334 40.24L221.014 44.6692L221.014 44.6692L223.334 40.24ZM220.254 39.25L219.109 44.1171L219.191 44.1364L219.273 44.1529L220.254 39.25ZM216.129 38.37L215.057 43.2537L215.114 43.2663L215.171 43.2775L216.129 38.37ZM211.564 37.105L209.948 41.8368L209.965 41.8426L209.983 41.8484L211.564 37.105ZM207.384 35.07L204.582 39.2114L204.61 39.2302L204.638 39.2485L207.384 35.07ZM204.359 31.77L199.983 34.1884L199.996 34.2133L200.01 34.238L204.359 31.77ZM205.184 20.11L201.059 17.2838L201.053 17.2922L201.048 17.3006L205.184 20.11ZM211.179 15.38L209.171 10.8007L209.16 10.8058L209.148 10.8109L211.179 15.38ZM228.834 14.445L227.772 19.3309L228.834 14.445ZM235.654 16.975L240.272 18.8923L241.972 14.7967L238.109 12.6192L235.654 16.975ZM231.749 26.38L229.513 30.8521L234.31 33.2507L236.367 28.2973L231.749 26.38ZM226.194 24.235L224.887 29.0611L224.899 29.0645L224.912 29.0678L226.194 24.235ZM218.054 23.85L216.617 19.0609L218.054 23.85ZM216.459 24.73L212.742 21.3852L212.645 21.4931L212.554 21.6065L216.459 24.73ZM217.174 27.535L214.854 31.9642L214.938 32.0084L215.024 32.0493L217.174 27.535ZM220.199 28.47L219.191 33.3673L219.204 33.3701L219.218 33.3729L220.199 28.47ZM224.379 29.295L223.421 34.2025L223.432 34.2046L223.443 34.2067L224.379 29.295ZM228.944 30.505L227.328 35.2367H227.328L228.944 30.505ZM233.069 32.54L230.267 36.6814L230.295 36.7002L230.323 36.7185L233.069 32.54ZM236.149 35.84L231.8 38.308L231.8 38.308L236.149 35.84ZM235.269 47.39L231.144 44.5638L231.138 44.5722L231.133 44.5806L235.269 47.39ZM229.329 52.12L231.359 56.6891L231.386 56.6773L231.412 56.6653L229.329 52.12ZM219.374 48.88C216.529 48.88 213.811 48.5572 211.209 47.9224L208.839 57.6376C212.25 58.4695 215.765 58.88 219.374 58.88V48.88ZM211.209 47.9224C208.529 47.2688 206.566 46.4749 205.183 45.6397L200.014 54.2003C202.518 55.7118 205.505 56.8245 208.839 57.6376L211.209 47.9224ZM207.172 51.9408L211.352 42.4808L202.205 38.4392L198.025 47.8992L207.172 51.9408ZM204.27 44.7852C206.48 46.0671 208.888 47.079 211.469 47.8406L214.299 38.2494C212.406 37.691 210.744 36.9796 209.287 36.1348L204.27 44.7852ZM211.562 47.867C214.22 48.5958 216.865 48.98 219.484 48.98V38.98C217.849 38.98 216.095 38.7408 214.206 38.223L211.562 47.867ZM219.484 48.98C220.86 48.98 222.233 48.9046 223.429 48.6527L221.369 38.8673C221.172 38.9087 220.601 38.98 219.484 38.98V48.98ZM223.611 48.6107C224.643 48.3529 226.096 47.8663 227.316 46.782L220.672 39.308C220.987 39.0276 221.242 38.908 221.302 38.8812C221.37 38.8507 221.346 38.8692 221.186 38.9093L223.611 48.6107ZM227.529 46.5805C228.734 45.376 229.489 43.7428 229.489 41.89H219.489C219.489 41.4677 219.572 41.0002 219.769 40.5392C219.964 40.0838 220.225 39.743 220.458 39.5095L227.529 46.5805ZM229.489 41.89C229.489 38.8435 227.587 36.8234 225.654 35.8108L221.014 44.6692C220.892 44.6056 220.485 44.3669 220.104 43.8223C219.685 43.2238 219.489 42.5264 219.489 41.89H229.489ZM225.654 35.8108C224.307 35.1053 222.774 34.655 221.234 34.3471L219.273 44.1529C220.3 44.3583 220.821 44.568 221.014 44.6692L225.654 35.8108ZM221.399 34.3829C220.079 34.0724 218.641 33.7659 217.086 33.4625L215.171 43.2775C216.623 43.5608 217.935 43.8409 219.109 44.1171L221.399 34.3829ZM217.201 33.4863C215.879 33.196 214.527 32.8222 213.145 32.3616L209.983 41.8484C211.681 42.4144 213.372 42.884 215.057 43.2537L217.201 33.4863ZM213.18 32.3732C212.061 31.9913 211.049 31.4957 210.13 30.8915L204.638 39.2485C206.285 40.331 208.06 41.192 209.948 41.8368L213.18 32.3732ZM210.185 30.9286C209.6 30.5325 209.112 30.0144 208.707 29.302L200.01 34.238C201.146 36.239 202.674 37.9209 204.582 39.2114L210.185 30.9286ZM208.735 29.3516C208.476 28.8828 208.204 28.0463 208.204 26.6H198.204C198.204 29.2604 198.702 31.8705 199.983 34.1884L208.735 29.3516ZM208.204 26.6C208.204 25.203 208.571 24.0212 209.32 22.9194L201.048 17.3006C199.156 20.0854 198.204 23.2303 198.204 26.6H208.204ZM209.308 22.9362C210.044 21.8624 211.242 20.8235 213.209 19.9491L209.148 10.8109C205.836 12.2832 203.037 14.3976 201.059 17.2838L209.308 22.9362ZM213.186 19.9593C215.048 19.1433 217.634 18.62 221.134 18.62V8.62C216.714 8.62 212.663 9.27006 209.171 10.8007L213.186 19.9593ZM221.134 18.62C223.382 18.62 225.593 18.8572 227.772 19.3309L229.896 9.55912C227.015 8.93284 224.092 8.62 221.134 8.62V18.62ZM227.772 19.3309C229.871 19.7872 231.665 20.4665 233.199 21.3308L238.109 12.6192C235.609 11.2102 232.857 10.2028 229.896 9.55912L227.772 19.3309ZM231.036 15.0577L227.131 24.4627L236.367 28.2973L240.272 18.8923L231.036 15.0577ZM233.985 21.9079C231.817 20.8238 229.646 19.9779 227.476 19.4022L224.912 29.0678C226.335 29.4454 227.867 30.0295 229.513 30.8521L233.985 21.9079ZM227.501 19.4089C225.349 18.8261 223.186 18.52 221.024 18.52V28.52C222.235 28.52 223.519 28.6906 224.887 29.0611L227.501 19.4089ZM221.024 18.52C219.555 18.52 218.016 18.6413 216.617 19.0609L219.491 28.6391C219.489 28.6396 219.521 28.6301 219.592 28.6164C219.663 28.6028 219.764 28.5869 219.898 28.5719C220.171 28.5416 220.541 28.52 221.024 28.52V18.52ZM216.617 19.0609C215.45 19.4108 213.935 20.0594 212.742 21.3852L220.175 28.0748C219.892 28.3891 219.634 28.5501 219.52 28.6129C219.407 28.6752 219.38 28.6723 219.491 28.6391L216.617 19.0609ZM212.554 21.6065C211.603 22.7958 211.019 24.2854 211.019 25.94H221.019C221.019 26.2878 220.959 26.6563 220.828 27.0162C220.698 27.3721 220.525 27.6515 220.363 27.8535L212.554 21.6065ZM211.019 25.94C211.019 29.0589 213.045 31.0165 214.854 31.9642L219.494 23.1058C219.581 23.1514 219.974 23.3722 220.357 23.9012C220.786 24.4934 221.019 25.223 221.019 25.94H211.019ZM215.024 32.0493C216.289 32.6515 217.722 33.065 219.191 33.3673L221.207 23.5727C220.182 23.3616 219.599 23.1519 219.323 23.0207L215.024 32.0493ZM219.218 33.3729C220.51 33.6313 221.911 33.9079 223.421 34.2025L225.336 24.3875C223.839 24.0955 222.454 23.822 221.179 23.5671L219.218 33.3729ZM223.443 34.2067C224.75 34.4555 226.044 34.7983 227.328 35.2367L230.56 25.7733C228.837 25.1851 227.088 24.7212 225.314 24.3833L223.443 34.2067ZM227.328 35.2367C228.435 35.6147 229.408 36.1 230.267 36.6814L235.87 28.3986C234.237 27.2934 232.459 26.422 230.56 25.7733L227.328 35.2367ZM230.323 36.7185C230.933 37.1196 231.415 37.6291 231.8 38.308L240.497 33.372C239.343 31.3376 237.771 29.647 235.815 28.3615L230.323 36.7185ZM231.8 38.308C232.036 38.7231 232.304 39.5014 232.304 40.9H242.304C242.304 38.2653 241.802 35.6702 240.497 33.372L231.8 38.308ZM232.304 40.9C232.304 42.2136 231.944 43.3958 231.144 44.5638L239.393 50.2162C241.306 47.4242 242.304 44.2797 242.304 40.9H232.304ZM231.133 44.5806C230.434 45.6089 229.251 46.6556 227.246 47.5747L231.412 56.6653C234.687 55.1644 237.463 53.0577 239.405 50.1994L231.133 44.5806ZM227.298 47.5509C225.493 48.3533 222.922 48.88 219.374 48.88V58.88C223.819 58.88 227.885 58.2334 231.359 56.6891L227.298 47.5509ZM267.951 23.795L265.68 28.2495L265.715 28.2673L265.75 28.2846L267.951 23.795ZM272.351 28.14L267.946 30.5056L267.963 30.537L267.98 30.5682L272.351 28.14ZM274.001 53V58H279.001V53H274.001ZM261.571 53H256.571V58H261.571V53ZM260.581 34.025L256.711 37.1912L256.748 37.2355L256.785 37.279L260.581 34.025ZM255.521 33.42L257.85 37.8446L257.891 37.8232L257.931 37.8011L255.521 33.42ZM253.816 35.29L249.344 33.0539L249.306 33.1297L249.271 33.2067L253.816 35.29ZM253.211 53V58H258.211V53H253.211ZM240.781 53H235.781V58H240.781V53ZM240.781 12.19V7.19H235.781V12.19H240.781ZM253.211 12.19H258.211V7.19H253.211V12.19ZM253.211 31.715L249.969 35.5212L258.211 42.5425V31.715H253.211ZM250.241 29.185L245.798 26.8918L243.978 30.418L246.999 32.9912L250.241 29.185ZM254.971 24.07L252.516 19.7142L252.499 19.7239L252.482 19.7337L254.971 24.07ZM261.681 27.365C263.283 27.365 264.582 27.6897 265.68 28.2495L270.222 19.3405C267.58 17.9936 264.7 17.365 261.681 17.365V27.365ZM265.75 28.2846C266.606 28.7041 267.336 29.3697 267.946 30.5056L276.756 25.7744C275.24 22.9503 273.036 20.7192 270.152 19.3054L265.75 28.2846ZM267.98 30.5682C268.537 31.5708 269.001 33.2201 269.001 35.84H279.001C279.001 32.1532 278.365 28.6692 276.722 25.7118L267.98 30.5682ZM269.001 35.84V53H279.001V35.84H269.001ZM274.001 48H261.571V58H274.001V48ZM266.571 53V37.985H256.571V53H266.571ZM266.571 37.985C266.571 35.8118 266.244 32.949 264.378 30.771L256.785 37.279C256.468 36.9086 256.435 36.6528 256.473 36.8052C256.51 36.9521 256.571 37.3182 256.571 37.985H266.571ZM264.451 30.8588C262.748 28.7768 260.368 27.815 257.886 27.815V37.815C257.857 37.815 257.651 37.8076 257.365 37.6788C257.065 37.5445 256.843 37.3519 256.711 37.1912L264.451 30.8588ZM257.886 27.815C256.207 27.815 254.589 28.2263 253.112 29.0389L257.931 37.8011C257.936 37.798 257.936 37.7989 257.929 37.8015C257.922 37.8043 257.913 37.8075 257.902 37.8103C257.891 37.8131 257.882 37.8145 257.877 37.8151C257.873 37.8156 257.875 37.815 257.886 37.815V27.815ZM253.193 28.9954C251.361 29.9593 250.134 31.4742 249.344 33.0539L258.288 37.5261C258.336 37.431 258.34 37.452 258.267 37.5313C258.189 37.6173 258.05 37.7391 257.85 37.8446L253.193 28.9954ZM249.271 33.2067C248.448 35.0016 248.211 36.9997 248.211 38.865H258.211C258.211 38.3285 258.248 37.9413 258.292 37.678C258.337 37.4116 258.381 37.3314 258.362 37.3733L249.271 33.2067ZM248.211 38.865V53H258.211V38.865H248.211ZM253.211 48H240.781V58H253.211V48ZM245.781 53V12.19H235.781V53H245.781ZM240.781 17.19H253.211V7.19H240.781V17.19ZM248.211 12.19V31.715H258.211V12.19H248.211ZM256.454 27.9088L253.484 25.3788L246.999 32.9912L249.969 35.5212L256.454 27.9088ZM254.684 31.4782C255.471 29.9533 256.413 29.0077 257.461 28.4063L252.482 19.7337C249.57 21.4056 247.358 23.8701 245.798 26.8918L254.684 31.4782ZM257.426 28.4258C258.648 27.7374 260.03 27.365 261.681 27.365V17.365C258.419 17.365 255.328 18.1292 252.516 19.7142L257.426 28.4258ZM286.757 51.57L284.446 56.004L284.483 56.0234L284.52 56.0421L286.757 51.57ZM280.597 46.015L276.386 48.7121L280.597 46.015ZM280.597 29.845L276.386 27.1479V27.1479L280.597 29.845ZM286.757 24.345L284.52 19.8729L284.508 19.8791L284.495 19.8855L286.757 24.345ZM304.907 24.345L302.67 28.8171L304.907 24.345ZM311.067 29.845L306.827 32.495L306.841 32.5186L306.856 32.5421L311.067 29.845ZM311.067 46.015L306.856 43.3179L306.841 43.3414L306.827 43.365L311.067 46.015ZM304.907 51.57L307.143 56.0421L307.167 56.0298L307.192 56.0172L304.907 51.57ZM298.307 43.21L295.734 38.9225L298.307 43.21ZM300.067 41.23L304.539 43.4661L304.557 43.43L304.574 43.3937L300.067 41.23ZM300.067 34.685L295.594 36.9211L295.614 36.9596L295.634 36.9978L300.067 34.685ZM298.307 32.705L295.734 36.9925V36.9925L298.307 32.705ZM293.357 32.705L290.784 28.4175V28.4175L293.357 32.705ZM291.597 34.685L296.029 36.9978L296.049 36.9596L296.069 36.9211L291.597 34.685ZM291.597 41.23L287.089 43.3937L287.106 43.43L287.124 43.4661L291.597 41.23ZM293.357 43.21L290.784 47.4975L290.784 47.4975L293.357 43.21ZM295.832 48.55C293.077 48.55 290.838 48.0205 288.993 47.0979L284.52 56.0421C287.955 57.7595 291.766 58.55 295.832 58.55V48.55ZM289.067 47.136C287.195 46.1602 285.814 44.89 284.807 43.3179L276.386 48.7121C278.386 51.8333 281.112 54.2664 284.446 56.004L289.067 47.136ZM284.807 43.3179C283.866 41.8499 283.342 40.1087 283.342 37.93H273.342C273.342 41.838 274.32 45.4868 276.386 48.7121L284.807 43.3179ZM283.342 37.93C283.342 35.7513 283.866 34.0101 284.807 32.5421L276.386 27.1479C274.32 30.3732 273.342 34.022 273.342 37.93H283.342ZM284.807 32.5421C285.806 30.9824 287.17 29.7412 289.018 28.8045L284.495 19.8855C281.136 21.5888 278.394 24.0143 276.386 27.1479L284.807 32.5421ZM288.993 28.8171C290.838 27.8945 293.077 27.365 295.832 27.365V17.365C291.766 17.365 287.955 18.1555 284.52 19.8729L288.993 28.8171ZM295.832 27.365C298.586 27.365 300.825 27.8945 302.67 28.8171L307.143 19.8729C303.708 18.1555 299.897 17.365 295.832 17.365V27.365ZM302.67 28.8171C304.545 29.7542 305.88 30.9809 306.827 32.495L315.307 27.195C313.319 24.0158 310.548 21.5758 307.143 19.8729L302.67 28.8171ZM306.856 32.5421C307.797 34.0101 308.322 35.7513 308.322 37.93H318.322C318.322 34.022 317.343 30.3732 315.277 27.1479L306.856 32.5421ZM308.322 37.93C308.322 40.1087 307.797 41.8499 306.856 43.3179L315.277 48.7121C317.343 45.4867 318.322 41.838 318.322 37.93H308.322ZM306.827 43.365C305.872 44.8918 304.52 46.1471 302.621 47.1228L307.192 56.0172C310.573 54.2796 313.327 51.8315 315.307 48.665L306.827 43.365ZM302.67 47.0979C300.825 48.0205 298.586 48.55 295.832 48.55V58.55C299.897 58.55 303.708 57.7595 307.143 56.0421L302.67 47.0979ZM295.832 48.87C297.587 48.87 299.313 48.4373 300.879 47.4975L295.734 38.9225C295.748 38.9139 295.767 38.904 295.789 38.8947C295.811 38.8853 295.832 38.8784 295.849 38.8738C295.887 38.8638 295.887 38.87 295.832 38.87V48.87ZM300.879 47.4975C302.545 46.498 303.739 45.0657 304.539 43.4661L295.594 38.9939C295.549 39.0854 295.53 39.0962 295.559 39.0632C295.574 39.0471 295.596 39.024 295.628 38.9976C295.66 38.9712 295.696 38.9455 295.734 38.9225L300.879 47.4975ZM304.574 43.3937C305.412 41.6487 305.727 39.7717 305.727 37.93H295.727C295.727 38.655 295.601 38.978 295.559 39.0663L304.574 43.3937ZM305.727 37.93C305.727 36.0999 305.428 34.152 304.499 32.3722L295.634 36.9978C295.585 36.9047 295.727 37.1201 295.727 37.93H305.727ZM304.539 32.4489C303.739 30.8493 302.545 29.417 300.879 28.4175L295.734 36.9925C295.696 36.9695 295.66 36.9438 295.628 36.9174C295.596 36.891 295.574 36.8679 295.559 36.8518C295.53 36.8188 295.549 36.8296 295.594 36.9211L304.539 32.4489ZM300.879 28.4175C299.313 27.4777 297.587 27.045 295.832 27.045V37.045C295.887 37.045 295.887 37.0512 295.849 37.0412C295.832 37.0366 295.811 37.0297 295.789 37.0203C295.767 37.011 295.748 37.0011 295.734 36.9925L300.879 28.4175ZM295.832 27.045C294.076 27.045 292.35 27.4777 290.784 28.4175L295.929 36.9925C295.915 37.0011 295.896 37.011 295.874 37.0203C295.852 37.0297 295.831 37.0366 295.814 37.0412C295.776 37.0512 295.776 37.045 295.832 37.045V27.045ZM290.784 28.4175C289.118 29.417 287.924 30.8493 287.124 32.4489L296.069 36.9211C296.114 36.8296 296.133 36.8188 296.104 36.8518C296.089 36.8679 296.067 36.891 296.035 36.9174C296.003 36.9438 295.967 36.9695 295.929 36.9925L290.784 28.4175ZM287.164 32.3722C286.235 34.152 285.937 36.0999 285.937 37.93H295.937C295.937 37.1201 296.078 36.9047 296.029 36.9978L287.164 32.3722ZM285.937 37.93C285.937 39.7717 286.251 41.6487 287.089 43.3937L296.104 39.0663C296.062 38.978 295.937 38.655 295.937 37.93H285.937ZM287.124 43.4661C287.924 45.0657 289.118 46.498 290.784 47.4975L295.929 38.9225C295.967 38.9455 296.003 38.9712 296.035 38.9976C296.067 39.024 296.089 39.0471 296.104 39.0632C296.133 39.0962 296.114 39.0854 296.069 38.9939L287.124 43.4661ZM290.784 47.4975C292.35 48.4373 294.076 48.87 295.832 48.87V38.87C295.776 38.87 295.776 38.8638 295.814 38.8738C295.831 38.8784 295.852 38.8853 295.874 38.8947C295.896 38.904 295.915 38.9139 295.929 38.9225L290.784 47.4975ZM323.776 53L319.053 54.6406L320.22 58H323.776V53ZM313.326 22.915V17.915H306.296L308.603 24.5556L313.326 22.915ZM325.096 22.915L329.852 21.3725L328.731 17.915H325.096V22.915ZM333.016 47.335V52.335H339.894L337.772 45.7925L333.016 47.335ZM327.351 47.335L322.618 45.7251L320.37 52.335H327.351V47.335ZM335.656 22.915V17.915H332.075L330.923 21.3051L335.656 22.915ZM346.216 22.915L350.972 21.3725L349.851 17.915H346.216V22.915ZM354.136 47.335V52.335H361.014L358.892 45.7925L354.136 47.335ZM348.636 47.335L343.896 45.7443L341.684 52.335H348.636V47.335ZM356.831 22.915V17.915H353.235L352.091 21.3243L356.831 22.915ZM367.721 22.915L372.444 24.5556L374.751 17.915H367.721V22.915ZM357.271 53V58H360.828L361.994 54.6406L357.271 53ZM345.171 53L340.418 54.5528L341.545 58H345.171V53ZM338.846 33.64V28.64H331.953L334.093 35.1928L338.846 33.64ZM342.476 33.64L347.209 35.2534L349.463 28.64H342.476V33.64ZM335.876 53V58H339.454L340.609 54.6134L335.876 53ZM328.499 51.3594L318.049 21.2744L308.603 24.5556L319.053 54.6406L328.499 51.3594ZM313.326 27.915H325.096V17.915H313.326V27.915ZM320.34 24.4575L328.26 48.8775L337.772 45.7925L329.852 21.3725L320.34 24.4575ZM333.016 42.335H327.351V52.335H333.016V42.335ZM332.085 48.9449L340.39 24.5249L330.923 21.3051L322.618 45.7251L332.085 48.9449ZM335.656 27.915H346.216V17.915H335.656V27.915ZM341.46 24.4575L349.38 48.8775L358.892 45.7925L350.972 21.3725L341.46 24.4575ZM354.136 42.335H348.636V52.335H354.136V42.335ZM353.376 48.9257L361.571 24.5057L352.091 21.3243L343.896 45.7443L353.376 48.9257ZM356.831 27.915H367.721V17.915H356.831V27.915ZM362.998 21.2744L352.548 51.3594L361.994 54.6406L372.444 24.5556L362.998 21.2744ZM357.271 48H345.171V58H357.271V48ZM349.924 51.4472L343.599 32.0872L334.093 35.1928L340.418 54.5528L349.924 51.4472ZM338.846 38.64H342.476V28.64H338.846V38.64ZM337.744 32.0266L331.144 51.3866L340.609 54.6134L347.209 35.2534L337.744 32.0266ZM335.876 48H323.776V58H335.876V48ZM375.252 51.68L372.732 55.9989L372.774 56.0236L372.817 56.0474L375.252 51.68ZM369.972 46.29L365.614 48.7413L365.622 48.756L365.63 48.7707L369.972 46.29ZM369.972 29.625L374.313 32.1057L374.321 32.091L374.329 32.0763L369.972 29.625ZM375.252 24.235L372.817 19.8676L372.802 19.8762L372.786 19.8849L375.252 24.235ZM389.002 24.07L386.207 28.2163L386.239 28.2374L386.27 28.2581L389.002 24.07ZM392.742 29.185L388.021 30.8334L388.025 30.8452L388.029 30.857L392.742 29.185ZM392.797 46.785L388.053 45.2039L388.042 45.2379L388.031 45.2721L392.797 46.785ZM389.167 51.9L386.435 47.7119L386.414 47.7257L386.393 47.7397L389.167 51.9ZM387.957 43.21L390.529 47.4975L390.529 47.4975L387.957 43.21ZM389.717 41.23L394.189 43.4661L394.207 43.43L394.224 43.3937L389.717 41.23ZM389.717 34.685L385.244 36.9211L385.264 36.9596L385.284 36.9978L389.717 34.685ZM387.957 32.705L390.529 28.4175V28.4175L387.957 32.705ZM383.007 32.705L385.579 36.9925V36.9925L383.007 32.705ZM381.247 34.685L385.679 36.9978L385.699 36.9596L385.719 36.9211L381.247 34.685ZM381.247 41.23L376.739 43.3937L376.756 43.43L376.774 43.4661L381.247 41.23ZM383.007 43.21L385.579 38.9225L383.007 43.21ZM390.762 53H385.762V58H390.762V53ZM390.762 48.93H395.762V48.9175L395.761 48.905L390.762 48.93ZM390.707 37.93L395.706 37.905L395.706 37.7926L395.7 37.6803L390.707 37.93ZM390.157 26.93H385.157V27.0549L385.163 27.1797L390.157 26.93ZM390.157 12.19V7.19H385.157V12.19H390.157ZM402.587 12.19H407.587V7.19H402.587V12.19ZM402.587 53V58H407.587V53H402.587ZM382.512 48.55C380.745 48.55 379.165 48.1372 377.686 47.3126L372.817 56.0474C375.811 57.7161 379.071 58.55 382.512 58.55V48.55ZM377.771 47.3611C376.363 46.5401 375.218 45.3927 374.313 43.8093L365.63 48.7707C367.366 51.8073 369.74 54.2532 372.732 55.9989L377.771 47.3611ZM374.329 43.8387C373.507 42.376 372.992 40.4682 372.992 37.93H362.992C362.992 41.8451 363.796 45.5107 365.614 48.7413L374.329 43.8387ZM372.992 37.93C372.992 35.3889 373.508 33.5147 374.313 32.1057L365.63 27.1443C363.795 30.3553 362.992 34.0178 362.992 37.93H372.992ZM374.329 32.0763C375.233 30.4696 376.36 29.3536 377.717 28.5851L372.786 19.8849C369.743 21.6097 367.35 24.0871 365.614 27.1737L374.329 32.0763ZM377.686 28.6024C379.165 27.7778 380.745 27.365 382.512 27.365V17.365C379.071 17.365 375.811 18.1989 372.817 19.8676L377.686 28.6024ZM382.512 27.365C384.45 27.365 385.56 27.7803 386.207 28.2163L391.796 19.9237C389.069 18.0864 385.853 17.365 382.512 17.365V27.365ZM386.27 28.2581C386.846 28.6334 387.498 29.3359 388.021 30.8334L397.462 27.5366C396.372 24.4141 394.531 21.7066 391.733 19.8819L386.27 28.2581ZM388.029 30.857C388.578 32.4033 388.952 34.6984 388.952 37.93H398.952C398.952 34.0482 398.518 30.5133 397.454 27.5129L388.029 30.857ZM388.952 37.93C388.952 41.2166 388.593 43.5842 388.053 45.2039L397.54 48.3661C398.54 45.3658 398.952 41.83 398.952 37.93H388.952ZM388.031 45.2721C387.573 46.7149 386.969 47.3638 386.435 47.7119L391.898 56.0881C394.737 54.2362 396.554 51.4751 397.562 48.2979L388.031 45.2721ZM386.393 47.7397C385.835 48.1119 384.696 48.55 382.512 48.55V58.55C385.901 58.55 389.198 57.8881 391.94 56.0602L386.393 47.7397ZM385.482 48.87C387.237 48.87 388.963 48.4373 390.529 47.4975L385.384 38.9225C385.398 38.9139 385.417 38.904 385.439 38.8947C385.461 38.8853 385.482 38.8784 385.499 38.8738C385.537 38.8638 385.537 38.87 385.482 38.87V48.87ZM390.529 47.4975C392.195 46.498 393.389 45.0657 394.189 43.4661L385.244 38.9939C385.199 39.0854 385.18 39.0962 385.209 39.0632C385.224 39.0471 385.246 39.024 385.278 38.9976C385.31 38.9712 385.346 38.9455 385.384 38.9225L390.529 47.4975ZM394.224 43.3937C395.062 41.6487 395.377 39.7716 395.377 37.93H385.377C385.377 38.655 385.251 38.978 385.209 39.0663L394.224 43.3937ZM395.377 37.93C395.377 36.0999 395.078 34.152 394.149 32.3722L385.284 36.9978C385.235 36.9047 385.377 37.1201 385.377 37.93H395.377ZM394.189 32.4489C393.389 30.8493 392.195 29.417 390.529 28.4175L385.384 36.9925C385.346 36.9695 385.31 36.9438 385.278 36.9174C385.246 36.891 385.224 36.8679 385.209 36.8518C385.18 36.8188 385.199 36.8296 385.244 36.9211L394.189 32.4489ZM390.529 28.4175C388.963 27.4777 387.237 27.045 385.482 27.045V37.045C385.537 37.045 385.537 37.0512 385.499 37.0412C385.482 37.0366 385.461 37.0297 385.439 37.0203C385.417 37.011 385.398 37.0011 385.384 36.9925L390.529 28.4175ZM385.482 27.045C383.726 27.045 382 27.4777 380.434 28.4175L385.579 36.9925C385.565 37.0011 385.546 37.011 385.524 37.0203C385.502 37.0297 385.481 37.0366 385.464 37.0412C385.426 37.0512 385.426 37.045 385.482 37.045V27.045ZM380.434 28.4175C378.768 29.417 377.574 30.8493 376.774 32.4489L385.719 36.9211C385.764 36.8296 385.783 36.8188 385.754 36.8518C385.739 36.8679 385.717 36.891 385.685 36.9174C385.653 36.9438 385.617 36.9695 385.579 36.9925L380.434 28.4175ZM376.814 32.3722C375.885 34.152 375.587 36.0999 375.587 37.93H385.587C385.587 37.1201 385.728 36.9047 385.679 36.9978L376.814 32.3722ZM375.587 37.93C375.587 39.7716 375.901 41.6487 376.739 43.3937L385.754 39.0663C385.712 38.978 385.587 38.655 385.587 37.93H375.587ZM376.774 43.4661C377.574 45.0657 378.768 46.498 380.434 47.4975L385.579 38.9225C385.617 38.9455 385.653 38.9712 385.685 38.9976C385.717 39.024 385.739 39.0471 385.754 39.0632C385.783 39.0962 385.764 39.0854 385.719 38.9939L376.774 43.4661ZM380.434 47.4975C382 48.4373 383.726 48.87 385.482 48.87V38.87C385.426 38.87 385.426 38.8638 385.464 38.8738C385.481 38.8784 385.502 38.8853 385.524 38.8947C385.546 38.904 385.565 38.9139 385.579 38.9225L380.434 47.4975ZM395.762 53V48.93H385.762V53H395.762ZM395.761 48.905L395.706 37.905L385.707 37.955L385.762 48.955L395.761 48.905ZM395.7 37.6803L395.15 26.6803L385.163 27.1797L385.713 38.1797L395.7 37.6803ZM395.157 26.93V12.19H385.157V26.93H395.157ZM390.157 17.19H402.587V7.19H390.157V17.19ZM397.587 12.19V53H407.587V12.19H397.587ZM402.587 48H390.762V58H402.587V48ZM414.911 51.57L412.6 56.004L412.637 56.0234L412.675 56.0421L414.911 51.57ZM408.751 46.015L404.541 48.7121L408.751 46.015ZM408.751 29.845L404.541 27.1479V27.1479L408.751 29.845ZM414.911 24.345L412.675 19.8729L412.662 19.8791L412.65 19.8855L414.911 24.345ZM433.061 24.345L430.825 28.8171L433.061 24.345ZM439.221 29.845L434.981 32.495L434.996 32.5186L435.011 32.5421L439.221 29.845ZM439.221 46.015L435.011 43.3179L434.996 43.3414L434.981 43.365L439.221 46.015ZM433.061 51.57L435.297 56.0421L435.322 56.0298L435.346 56.0172L433.061 51.57ZM426.461 43.21L423.888 38.9225L426.461 43.21ZM428.221 41.23L432.693 43.4661L432.711 43.43L432.728 43.3937L428.221 41.23ZM428.221 34.685L423.749 36.9211L423.768 36.9596L423.788 36.9978L428.221 34.685ZM426.461 32.705L423.888 36.9925V36.9925L426.461 32.705ZM421.511 32.705L418.938 28.4175V28.4175L421.511 32.705ZM419.751 34.685L424.184 36.9978L424.204 36.9596L424.223 36.9211L419.751 34.685ZM419.751 41.23L415.243 43.3937L415.261 43.43L415.279 43.4661L419.751 41.23ZM421.511 43.21L418.938 47.4975L418.938 47.4975L421.511 43.21ZM423.986 48.55C421.231 48.55 418.992 48.0205 417.147 47.0979L412.675 56.0421C416.109 57.7595 419.92 58.55 423.986 58.55V48.55ZM417.222 47.136C415.349 46.1602 413.968 44.89 412.961 43.3179L404.541 48.7121C406.54 51.8333 409.266 54.2664 412.6 56.004L417.222 47.136ZM412.961 43.3179C412.021 41.8499 411.496 40.1087 411.496 37.93H401.496C401.496 41.838 402.474 45.4868 404.541 48.7121L412.961 43.3179ZM411.496 37.93C411.496 35.7513 412.021 34.0101 412.961 32.5421L404.541 27.1479C402.474 30.3732 401.496 34.022 401.496 37.93H411.496ZM412.961 32.5421C413.96 30.9824 415.325 29.7412 417.172 28.8045L412.65 19.8855C409.29 21.5888 406.548 24.0143 404.541 27.1479L412.961 32.5421ZM417.147 28.8171C418.992 27.8945 421.231 27.365 423.986 27.365V17.365C419.92 17.365 416.109 18.1555 412.675 19.8729L417.147 28.8171ZM423.986 27.365C426.74 27.365 428.979 27.8945 430.825 28.8171L435.297 19.8729C431.862 18.1555 428.051 17.365 423.986 17.365V27.365ZM430.825 28.8171C432.699 29.7542 434.035 30.9809 434.981 32.495L443.461 27.195C441.474 24.0158 438.703 21.5758 435.297 19.8729L430.825 28.8171ZM435.011 32.5421C435.951 34.0101 436.476 35.7513 436.476 37.93H446.476C446.476 34.022 445.497 30.3732 443.431 27.1479L435.011 32.5421ZM436.476 37.93C436.476 40.1087 435.951 41.8499 435.011 43.3179L443.431 48.7121C445.497 45.4867 446.476 41.838 446.476 37.93H436.476ZM434.981 43.365C434.027 44.8918 432.674 46.1471 430.775 47.1228L435.346 56.0172C438.727 54.2796 441.482 51.8315 443.461 48.665L434.981 43.365ZM430.825 47.0979C428.979 48.0205 426.74 48.55 423.986 48.55V58.55C428.051 58.55 431.862 57.7595 435.297 56.0421L430.825 47.0979ZM423.986 48.87C425.741 48.87 427.467 48.4373 429.033 47.4975L423.888 38.9225C423.903 38.9139 423.922 38.904 423.944 38.8947C423.966 38.8853 423.986 38.8784 424.004 38.8738C424.041 38.8638 424.041 38.87 423.986 38.87V48.87ZM429.033 47.4975C430.699 46.498 431.893 45.0657 432.693 43.4661L423.749 38.9939C423.703 39.0854 423.684 39.0962 423.714 39.0632C423.728 39.0471 423.751 39.024 423.782 38.9976C423.814 38.9712 423.85 38.9455 423.888 38.9225L429.033 47.4975ZM432.728 43.3937C433.566 41.6487 433.881 39.7717 433.881 37.93H423.881C423.881 38.655 423.756 38.978 423.713 39.0663L432.728 43.3937ZM433.881 37.93C433.881 36.0999 433.582 34.152 432.654 32.3722L423.788 36.9978C423.739 36.9047 423.881 37.1201 423.881 37.93H433.881ZM432.693 32.4489C431.893 30.8493 430.699 29.417 429.033 28.4175L423.888 36.9925C423.85 36.9695 423.814 36.9438 423.782 36.9174C423.751 36.891 423.728 36.8679 423.714 36.8518C423.684 36.8188 423.703 36.8296 423.749 36.9211L432.693 32.4489ZM429.033 28.4175C427.467 27.4777 425.741 27.045 423.986 27.045V37.045C424.041 37.045 424.041 37.0512 424.004 37.0412C423.986 37.0366 423.966 37.0297 423.944 37.0203C423.922 37.011 423.903 37.0011 423.888 36.9925L429.033 28.4175ZM423.986 27.045C422.231 27.045 420.505 27.4777 418.938 28.4175L424.083 36.9925C424.069 37.0011 424.05 37.011 424.028 37.0203C424.006 37.0297 423.985 37.0366 423.968 37.0412C423.93 37.0512 423.931 37.045 423.986 37.045V27.045ZM418.938 28.4175C417.273 29.417 416.078 30.8493 415.279 32.4489L424.223 36.9211C424.269 36.8296 424.287 36.8188 424.258 36.8518C424.244 36.8679 424.221 36.891 424.189 36.9174C424.157 36.9438 424.122 36.9695 424.083 36.9925L418.938 28.4175ZM415.318 32.3722C414.389 34.152 414.091 36.0999 414.091 37.93H424.091C424.091 37.1201 424.232 36.9047 424.184 36.9978L415.318 32.3722ZM414.091 37.93C414.091 39.7717 414.406 41.6487 415.243 43.3937L424.258 39.0663C424.216 38.978 424.091 38.655 424.091 37.93H414.091ZM415.279 43.4661C416.078 45.0657 417.273 46.498 418.938 47.4975L424.083 38.9225C424.122 38.9455 424.157 38.9712 424.189 38.9976C424.221 39.024 424.244 39.0471 424.258 39.0632C424.287 39.0962 424.269 39.0854 424.223 38.9939L415.279 43.4661ZM418.938 47.4975C420.505 48.4373 422.231 48.87 423.986 48.87V38.87C423.931 38.87 423.93 38.8638 423.968 38.8738C423.985 38.8784 424.006 38.8853 424.028 38.8947C424.05 38.904 424.069 38.9139 424.083 38.9225L418.938 47.4975ZM451.931 53L447.207 54.6406L448.374 58H451.931V53ZM441.481 22.915V17.915H434.451L436.757 24.5556L441.481 22.915ZM453.251 22.915L458.007 21.3725L456.885 17.915H453.251V22.915ZM461.171 47.335V52.335H468.049L465.927 45.7925L461.171 47.335ZM455.506 47.335L450.772 45.7251L448.524 52.335H455.506V47.335ZM463.811 22.915V17.915H460.23L459.077 21.3051L463.811 22.915ZM474.371 22.915L479.127 21.3725L478.005 17.915H474.371V22.915ZM482.291 47.335V52.335H489.169L487.047 45.7925L482.291 47.335ZM476.791 47.335L472.05 45.7443L469.839 52.335H476.791V47.335ZM484.986 22.915V17.915H481.389L480.245 21.3243L484.986 22.915ZM495.876 22.915L500.599 24.5556L502.905 17.915H495.876V22.915ZM485.426 53V58H488.982L490.149 54.6406L485.426 53ZM473.326 53L468.573 54.5528L469.699 58H473.326V53ZM467.001 33.64V28.64H460.107L462.248 35.1928L467.001 33.64ZM470.631 33.64L475.363 35.2534L477.618 28.64H470.631V33.64ZM464.031 53V58H467.609L468.763 54.6134L464.031 53ZM456.654 51.3594L446.204 21.2744L436.757 24.5556L447.207 54.6406L456.654 51.3594ZM441.481 27.915H453.251V17.915H441.481V27.915ZM448.494 24.4575L456.414 48.8775L465.927 45.7925L458.007 21.3725L448.494 24.4575ZM461.171 42.335H455.506V52.335H461.171V42.335ZM460.239 48.9449L468.544 24.5249L459.077 21.3051L450.772 45.7251L460.239 48.9449ZM463.811 27.915H474.371V17.915H463.811V27.915ZM469.614 24.4575L477.534 48.8775L487.047 45.7925L479.127 21.3725L469.614 24.4575ZM482.291 42.335H476.791V52.335H482.291V42.335ZM481.531 48.9257L489.726 24.5057L480.245 21.3243L472.05 45.7443L481.531 48.9257ZM484.986 27.915H495.876V17.915H484.986V27.915ZM491.152 21.2744L480.702 51.3594L490.149 54.6406L500.599 24.5556L491.152 21.2744ZM485.426 48H473.326V58H485.426V48ZM478.078 51.4472L471.753 32.0872L462.248 35.1928L468.573 54.5528L478.078 51.4472ZM467.001 38.64H470.631V28.64H467.001V38.64ZM465.898 32.0266L459.298 51.3866L468.763 54.6134L475.363 35.2534L465.898 32.0266ZM464.031 48H451.931V58H464.031V48ZM525.441 23.795L523.171 28.2495L523.206 28.2673L523.241 28.2846L525.441 23.795ZM529.841 28.14L525.437 30.5056L525.453 30.537L525.471 30.5682L529.841 28.14ZM531.492 53V58H536.492V53H531.492ZM519.061 53H514.061V58H519.061V53ZM518.071 34.025L514.202 37.1912L514.238 37.2355L514.275 37.279L518.071 34.025ZM513.011 33.42L515.34 37.8446L515.381 37.8232L515.421 37.8011L513.011 33.42ZM511.306 35.29L506.834 33.0539L506.796 33.1297L506.761 33.2067L511.306 35.29ZM510.701 53V58H515.701V53H510.701ZM498.271 53H493.271V58H498.271V53ZM498.271 22.915V17.915H493.271V22.915H498.271ZM510.096 22.915H515.096V17.915H510.096V22.915ZM510.096 31.715L506.444 35.1294L515.096 44.3857V31.715H510.096ZM507.731 29.185L503.288 26.8918L501.672 30.0242L504.079 32.5994L507.731 29.185ZM512.461 24.07L510.006 19.7142L509.989 19.7239L509.972 19.7337L512.461 24.07ZM519.172 27.365C520.773 27.365 522.072 27.6897 523.171 28.2495L527.712 19.3405C525.071 17.9936 522.19 17.365 519.172 17.365V27.365ZM523.241 28.2846C524.096 28.7041 524.826 29.3697 525.437 30.5056L534.246 25.7744C532.73 22.9503 530.526 20.7192 527.642 19.3054L523.241 28.2846ZM525.471 30.5682C526.028 31.5708 526.492 33.2201 526.492 35.84H536.492C536.492 32.1532 535.855 28.6692 534.212 25.7118L525.471 30.5682ZM526.492 35.84V53H536.492V35.84H526.492ZM531.492 48H519.061V58H531.492V48ZM524.061 53V37.985H514.061V53H524.061ZM524.061 37.985C524.061 35.8118 523.735 32.949 521.868 30.771L514.275 37.279C513.958 36.9086 513.925 36.6528 513.963 36.8052C514 36.9521 514.061 37.3182 514.061 37.985H524.061ZM521.941 30.8588C520.238 28.7768 517.858 27.815 515.376 27.815V37.815C515.347 37.815 515.142 37.8076 514.855 37.6788C514.556 37.5445 514.333 37.3519 514.202 37.1912L521.941 30.8588ZM515.376 27.815C513.697 27.815 512.079 28.2263 510.602 29.0389L515.421 37.8011C515.427 37.798 515.426 37.7989 515.419 37.8015C515.412 37.8043 515.403 37.8075 515.392 37.8103C515.381 37.8131 515.372 37.8145 515.368 37.8151C515.363 37.8156 515.365 37.815 515.376 37.815V27.815ZM510.683 28.9954C508.851 29.9593 507.624 31.4742 506.834 33.0539L515.779 37.5261C515.826 37.431 515.83 37.452 515.758 37.5313C515.679 37.6173 515.541 37.7391 515.34 37.8446L510.683 28.9954ZM506.761 33.2067C505.939 35.0016 505.701 36.9997 505.701 38.865H515.701C515.701 38.3285 515.738 37.9413 515.783 37.678C515.828 37.4116 515.871 37.3314 515.852 37.3733L506.761 33.2067ZM505.701 38.865V53H515.701V38.865H505.701ZM510.701 48H498.271V58H510.701V48ZM503.271 53V22.915H493.271V53H503.271ZM498.271 27.915H510.096V17.915H498.271V27.915ZM505.096 22.915V31.715H515.096V22.915H505.096ZM513.749 28.3006L511.384 25.7706L504.079 32.5994L506.444 35.1294L513.749 28.3006ZM512.175 31.4782C512.962 29.9533 513.903 29.0077 514.951 28.4063L509.972 19.7337C507.06 21.4056 504.848 23.8701 503.288 26.8918L512.175 31.4782ZM514.917 28.4258C516.138 27.7374 517.52 27.365 519.172 27.365V17.365C515.909 17.365 512.819 18.1292 510.006 19.7142L514.917 28.4258Z" fill="#4B7399" mask="url(#path-1-outside-1_42_3)"/>
</svg>
