<svg width="523" height="42" viewBox="0 0 523 42" fill="none" xmlns="http://www.w3.org/2000/svg">
<mask id="path-1-outside-1_17_88" maskUnits="userSpaceOnUse" x="-6" y="-6" width="534" height="53" fill="black">
<rect fill="white" x="-6" y="-6" width="534" height="53"/>
<path d="M0.135 41V2.5H18.67C22.2633 2.5 25.3617 3.08666 27.965 4.26C30.605 5.43333 32.64 7.12 34.07 9.32C35.5 11.4833 36.215 14.05 36.215 17.02C36.215 19.99 35.5 22.5567 34.07 24.72C32.64 26.8833 30.605 28.57 27.965 29.78C25.3617 30.9533 22.2633 31.54 18.67 31.54H7.34L13.115 25.985V41H0.135ZM13.115 27.415L7.34 21.53H17.845C19.6417 21.53 20.9617 21.1267 21.805 20.32C22.685 19.5133 23.125 18.4133 23.125 17.02C23.125 15.6267 22.685 14.5267 21.805 13.72C20.9617 12.9133 19.6417 12.51 17.845 12.51H7.34L13.115 6.625V27.415ZM53.164 41.55C50.7807 41.55 48.6174 41.0733 46.674 40.12C44.7674 39.13 43.264 37.6083 42.164 35.555C41.064 33.465 40.514 30.7883 40.514 27.525V10.915H52.944V25.38C52.944 27.5067 53.2924 28.9917 53.989 29.835C54.6857 30.6783 55.639 31.1 56.849 31.1C57.5824 31.1 58.2607 30.9167 58.884 30.55C59.544 30.1467 60.0757 29.505 60.479 28.625C60.8824 27.7083 61.084 26.5167 61.084 25.05V10.915H73.514V41H61.689V32.31L64.054 34.675C62.9907 37.0217 61.469 38.7633 59.489 39.9C57.5457 41 55.4374 41.55 53.164 41.55ZM77.9273 41V33.85L93.9323 16.03L95.9673 19.99H78.3673V10.915H106.032V18.065L90.0273 35.885L87.9923 31.925H106.637V41H77.9273ZM109.295 41V33.85L125.3 16.03L127.335 19.99H109.735V10.915H137.4V18.065L121.395 35.885L119.36 31.925H138.005V41H109.295ZM141.762 41V0.189998H154.192V41H141.762ZM176.311 41.55C172.645 41.55 169.436 40.8717 166.686 39.515C163.973 38.1583 161.865 36.3067 160.361 33.96C158.858 31.5767 158.106 28.9 158.106 25.93C158.106 22.8867 158.84 20.1917 160.306 17.845C161.81 15.4983 163.845 13.665 166.411 12.345C169.015 11.025 171.93 10.365 175.156 10.365C178.126 10.365 180.858 10.9517 183.351 12.125C185.881 13.2983 187.898 15.04 189.401 17.35C190.941 19.66 191.711 22.52 191.711 25.93C191.711 26.37 191.693 26.865 191.656 27.415C191.62 27.9283 191.583 28.405 191.546 28.845H168.391V22.85H184.946L180.271 24.445C180.271 23.2717 180.051 22.2817 179.611 21.475C179.208 20.6317 178.64 19.99 177.906 19.55C177.173 19.0733 176.293 18.835 175.266 18.835C174.24 18.835 173.341 19.0733 172.571 19.55C171.838 19.99 171.27 20.6317 170.866 21.475C170.463 22.2817 170.261 23.2717 170.261 24.445V26.315C170.261 27.5983 170.518 28.6983 171.031 29.615C171.545 30.5317 172.278 31.2283 173.231 31.705C174.185 32.145 175.34 32.365 176.696 32.365C178.09 32.365 179.226 32.1817 180.106 31.815C181.023 31.4483 181.976 30.8983 182.966 30.165L189.456 36.71C187.99 38.2867 186.175 39.4967 184.011 40.34C181.885 41.1467 179.318 41.55 176.311 41.55ZM210.374 41.88C207.147 41.88 204.03 41.5133 201.024 40.78C198.017 40.0467 195.542 39.0933 193.599 37.92L197.779 28.46C199.612 29.5233 201.647 30.385 203.884 31.045C206.157 31.6683 208.357 31.98 210.484 31.98C211.73 31.98 212.702 31.9067 213.399 31.76C214.132 31.5767 214.664 31.3383 214.994 31.045C215.324 30.715 215.489 30.33 215.489 29.89C215.489 29.1933 215.104 28.6433 214.334 28.24C213.564 27.8367 212.537 27.5067 211.254 27.25C210.007 26.9567 208.632 26.6633 207.129 26.37C205.625 26.04 204.104 25.6183 202.564 25.105C201.06 24.5917 199.667 23.9133 198.384 23.07C197.137 22.2267 196.129 21.1267 195.359 19.77C194.589 18.3767 194.204 16.6533 194.204 14.6C194.204 12.2167 194.864 10.0533 196.184 8.11C197.54 6.13 199.539 4.55333 202.179 3.38C204.855 2.20667 208.174 1.62 212.134 1.62C214.737 1.62 217.304 1.895 219.834 2.445C222.364 2.995 224.637 3.83833 226.654 4.975L222.749 14.38C220.842 13.4267 218.99 12.7117 217.194 12.235C215.434 11.7583 213.71 11.52 212.024 11.52C210.777 11.52 209.787 11.63 209.054 11.85C208.32 12.07 207.789 12.3633 207.459 12.73C207.165 13.0967 207.019 13.5 207.019 13.94C207.019 14.6 207.404 15.1317 208.174 15.535C208.944 15.9017 209.952 16.2133 211.199 16.47C212.482 16.7267 213.875 17.0017 215.379 17.295C216.919 17.5883 218.44 17.9917 219.944 18.505C221.447 19.0183 222.822 19.6967 224.069 20.54C225.352 21.3833 226.379 22.4833 227.149 23.84C227.919 25.1967 228.304 26.8833 228.304 28.9C228.304 31.2467 227.625 33.41 226.269 35.39C224.949 37.3333 222.969 38.91 220.329 40.12C217.689 41.2933 214.37 41.88 210.374 41.88ZM252.681 10.365C254.991 10.365 257.081 10.8417 258.951 11.795C260.821 12.7117 262.288 14.16 263.351 16.14C264.451 18.12 265.001 20.6867 265.001 23.84V41H252.571V25.985C252.571 24.115 252.241 22.795 251.581 22.025C250.921 21.2183 250.023 20.815 248.886 20.815C248.043 20.815 247.255 21.0167 246.521 21.42C245.825 21.7867 245.256 22.41 244.816 23.29C244.413 24.17 244.211 25.3617 244.211 26.865V41H231.781V0.189998H244.211V19.715L241.241 17.185C242.415 14.9117 243.991 13.2067 245.971 12.07C247.988 10.9333 250.225 10.365 252.681 10.365ZM286.832 41.55C283.422 41.55 280.397 40.89 277.757 39.57C275.153 38.2133 273.1 36.3617 271.597 34.015C270.093 31.6683 269.342 28.9733 269.342 25.93C269.342 22.8867 270.093 20.1917 271.597 17.845C273.1 15.4983 275.153 13.665 277.757 12.345C280.397 11.025 283.422 10.365 286.832 10.365C290.242 10.365 293.267 11.025 295.907 12.345C298.547 13.665 300.6 15.4983 302.067 17.845C303.57 20.1917 304.322 22.8867 304.322 25.93C304.322 28.9733 303.57 31.6683 302.067 34.015C300.6 36.3617 298.547 38.2133 295.907 39.57C293.267 40.89 290.242 41.55 286.832 41.55ZM286.832 31.87C287.748 31.87 288.573 31.65 289.307 31.21C290.04 30.77 290.627 30.11 291.067 29.23C291.507 28.3133 291.727 27.2133 291.727 25.93C291.727 24.61 291.507 23.5283 291.067 22.685C290.627 21.805 290.04 21.145 289.307 20.705C288.573 20.265 287.748 20.045 286.832 20.045C285.915 20.045 285.09 20.265 284.357 20.705C283.623 21.145 283.037 21.805 282.597 22.685C282.157 23.5283 281.937 24.61 281.937 25.93C281.937 27.2133 282.157 28.3133 282.597 29.23C283.037 30.11 283.623 30.77 284.357 31.21C285.09 31.65 285.915 31.87 286.832 31.87ZM314.776 41L304.326 10.915H316.096L324.016 35.335H318.351L326.656 10.915H337.216L345.136 35.335H339.636L347.831 10.915H358.721L348.271 41H336.171L329.846 21.64H333.476L326.876 41H314.776ZM373.512 41.55C370.908 41.55 368.488 40.9267 366.252 39.68C364.052 38.3967 362.292 36.6 360.972 34.29C359.652 31.9433 358.992 29.1567 358.992 25.93C358.992 22.7033 359.652 19.935 360.972 17.625C362.292 15.2783 364.052 13.4817 366.252 12.235C368.488 10.9883 370.908 10.365 373.512 10.365C376.152 10.365 378.315 10.9333 380.002 12.07C381.688 13.17 382.935 14.875 383.742 17.185C384.548 19.4583 384.952 22.3733 384.952 25.93C384.952 29.5233 384.567 32.475 383.797 34.785C383.063 37.095 381.853 38.8 380.167 39.9C378.517 41 376.298 41.55 373.512 41.55ZM376.482 31.87C377.398 31.87 378.223 31.65 378.957 31.21C379.69 30.77 380.277 30.11 380.717 29.23C381.157 28.3133 381.377 27.2133 381.377 25.93C381.377 24.61 381.157 23.5283 380.717 22.685C380.277 21.805 379.69 21.145 378.957 20.705C378.223 20.265 377.398 20.045 376.482 20.045C375.565 20.045 374.74 20.265 374.007 20.705C373.273 21.145 372.687 21.805 372.247 22.685C371.807 23.5283 371.587 24.61 371.587 25.93C371.587 27.2133 371.807 28.3133 372.247 29.23C372.687 30.11 373.273 30.77 374.007 31.21C374.74 31.65 375.565 31.87 376.482 31.87ZM381.762 41V36.93L381.707 25.93L381.157 14.93V0.189998H393.587V41H381.762ZM414.986 41.55C411.576 41.55 408.551 40.89 405.911 39.57C403.307 38.2133 401.254 36.3617 399.751 34.015C398.247 31.6683 397.496 28.9733 397.496 25.93C397.496 22.8867 398.247 20.1917 399.751 17.845C401.254 15.4983 403.307 13.665 405.911 12.345C408.551 11.025 411.576 10.365 414.986 10.365C418.396 10.365 421.421 11.025 424.061 12.345C426.701 13.665 428.754 15.4983 430.221 17.845C431.724 20.1917 432.476 22.8867 432.476 25.93C432.476 28.9733 431.724 31.6683 430.221 34.015C428.754 36.3617 426.701 38.2133 424.061 39.57C421.421 40.89 418.396 41.55 414.986 41.55ZM414.986 31.87C415.902 31.87 416.727 31.65 417.461 31.21C418.194 30.77 418.781 30.11 419.221 29.23C419.661 28.3133 419.881 27.2133 419.881 25.93C419.881 24.61 419.661 23.5283 419.221 22.685C418.781 21.805 418.194 21.145 417.461 20.705C416.727 20.265 415.902 20.045 414.986 20.045C414.069 20.045 413.244 20.265 412.511 20.705C411.777 21.145 411.191 21.805 410.751 22.685C410.311 23.5283 410.091 24.61 410.091 25.93C410.091 27.2133 410.311 28.3133 410.751 29.23C411.191 30.11 411.777 30.77 412.511 31.21C413.244 31.65 414.069 31.87 414.986 31.87ZM442.931 41L432.481 10.915H444.251L452.171 35.335H446.506L454.811 10.915H465.371L473.291 35.335H467.791L475.986 10.915H486.876L476.426 41H464.326L458.001 21.64H461.631L455.031 41H442.931ZM510.171 10.365C512.481 10.365 514.571 10.8417 516.441 11.795C518.311 12.7117 519.778 14.16 520.841 16.14C521.941 18.12 522.491 20.6867 522.491 23.84V41H510.061V25.985C510.061 24.115 509.731 22.795 509.071 22.025C508.411 21.2183 507.513 20.815 506.376 20.815C505.533 20.815 504.745 21.0167 504.011 21.42C503.315 21.7867 502.746 22.41 502.306 23.29C501.903 24.17 501.701 25.3617 501.701 26.865V41H489.271V10.915H501.096V19.715L498.731 17.185C499.905 14.9117 501.481 13.2067 503.461 12.07C505.478 10.9333 507.715 10.365 510.171 10.365Z"/>
</mask>
<path d="M0.135 41V2.5H18.67C22.2633 2.5 25.3617 3.08666 27.965 4.26C30.605 5.43333 32.64 7.12 34.07 9.32C35.5 11.4833 36.215 14.05 36.215 17.02C36.215 19.99 35.5 22.5567 34.07 24.72C32.64 26.8833 30.605 28.57 27.965 29.78C25.3617 30.9533 22.2633 31.54 18.67 31.54H7.34L13.115 25.985V41H0.135ZM13.115 27.415L7.34 21.53H17.845C19.6417 21.53 20.9617 21.1267 21.805 20.32C22.685 19.5133 23.125 18.4133 23.125 17.02C23.125 15.6267 22.685 14.5267 21.805 13.72C20.9617 12.9133 19.6417 12.51 17.845 12.51H7.34L13.115 6.625V27.415ZM53.164 41.55C50.7807 41.55 48.6174 41.0733 46.674 40.12C44.7674 39.13 43.264 37.6083 42.164 35.555C41.064 33.465 40.514 30.7883 40.514 27.525V10.915H52.944V25.38C52.944 27.5067 53.2924 28.9917 53.989 29.835C54.6857 30.6783 55.639 31.1 56.849 31.1C57.5824 31.1 58.2607 30.9167 58.884 30.55C59.544 30.1467 60.0757 29.505 60.479 28.625C60.8824 27.7083 61.084 26.5167 61.084 25.05V10.915H73.514V41H61.689V32.31L64.054 34.675C62.9907 37.0217 61.469 38.7633 59.489 39.9C57.5457 41 55.4374 41.55 53.164 41.55ZM77.9273 41V33.85L93.9323 16.03L95.9673 19.99H78.3673V10.915H106.032V18.065L90.0273 35.885L87.9923 31.925H106.637V41H77.9273ZM109.295 41V33.85L125.3 16.03L127.335 19.99H109.735V10.915H137.4V18.065L121.395 35.885L119.36 31.925H138.005V41H109.295ZM141.762 41V0.189998H154.192V41H141.762ZM176.311 41.55C172.645 41.55 169.436 40.8717 166.686 39.515C163.973 38.1583 161.865 36.3067 160.361 33.96C158.858 31.5767 158.106 28.9 158.106 25.93C158.106 22.8867 158.84 20.1917 160.306 17.845C161.81 15.4983 163.845 13.665 166.411 12.345C169.015 11.025 171.93 10.365 175.156 10.365C178.126 10.365 180.858 10.9517 183.351 12.125C185.881 13.2983 187.898 15.04 189.401 17.35C190.941 19.66 191.711 22.52 191.711 25.93C191.711 26.37 191.693 26.865 191.656 27.415C191.62 27.9283 191.583 28.405 191.546 28.845H168.391V22.85H184.946L180.271 24.445C180.271 23.2717 180.051 22.2817 179.611 21.475C179.208 20.6317 178.64 19.99 177.906 19.55C177.173 19.0733 176.293 18.835 175.266 18.835C174.24 18.835 173.341 19.0733 172.571 19.55C171.838 19.99 171.27 20.6317 170.866 21.475C170.463 22.2817 170.261 23.2717 170.261 24.445V26.315C170.261 27.5983 170.518 28.6983 171.031 29.615C171.545 30.5317 172.278 31.2283 173.231 31.705C174.185 32.145 175.34 32.365 176.696 32.365C178.09 32.365 179.226 32.1817 180.106 31.815C181.023 31.4483 181.976 30.8983 182.966 30.165L189.456 36.71C187.99 38.2867 186.175 39.4967 184.011 40.34C181.885 41.1467 179.318 41.55 176.311 41.55ZM210.374 41.88C207.147 41.88 204.03 41.5133 201.024 40.78C198.017 40.0467 195.542 39.0933 193.599 37.92L197.779 28.46C199.612 29.5233 201.647 30.385 203.884 31.045C206.157 31.6683 208.357 31.98 210.484 31.98C211.73 31.98 212.702 31.9067 213.399 31.76C214.132 31.5767 214.664 31.3383 214.994 31.045C215.324 30.715 215.489 30.33 215.489 29.89C215.489 29.1933 215.104 28.6433 214.334 28.24C213.564 27.8367 212.537 27.5067 211.254 27.25C210.007 26.9567 208.632 26.6633 207.129 26.37C205.625 26.04 204.104 25.6183 202.564 25.105C201.06 24.5917 199.667 23.9133 198.384 23.07C197.137 22.2267 196.129 21.1267 195.359 19.77C194.589 18.3767 194.204 16.6533 194.204 14.6C194.204 12.2167 194.864 10.0533 196.184 8.11C197.54 6.13 199.539 4.55333 202.179 3.38C204.855 2.20667 208.174 1.62 212.134 1.62C214.737 1.62 217.304 1.895 219.834 2.445C222.364 2.995 224.637 3.83833 226.654 4.975L222.749 14.38C220.842 13.4267 218.99 12.7117 217.194 12.235C215.434 11.7583 213.71 11.52 212.024 11.52C210.777 11.52 209.787 11.63 209.054 11.85C208.32 12.07 207.789 12.3633 207.459 12.73C207.165 13.0967 207.019 13.5 207.019 13.94C207.019 14.6 207.404 15.1317 208.174 15.535C208.944 15.9017 209.952 16.2133 211.199 16.47C212.482 16.7267 213.875 17.0017 215.379 17.295C216.919 17.5883 218.44 17.9917 219.944 18.505C221.447 19.0183 222.822 19.6967 224.069 20.54C225.352 21.3833 226.379 22.4833 227.149 23.84C227.919 25.1967 228.304 26.8833 228.304 28.9C228.304 31.2467 227.625 33.41 226.269 35.39C224.949 37.3333 222.969 38.91 220.329 40.12C217.689 41.2933 214.37 41.88 210.374 41.88ZM252.681 10.365C254.991 10.365 257.081 10.8417 258.951 11.795C260.821 12.7117 262.288 14.16 263.351 16.14C264.451 18.12 265.001 20.6867 265.001 23.84V41H252.571V25.985C252.571 24.115 252.241 22.795 251.581 22.025C250.921 21.2183 250.023 20.815 248.886 20.815C248.043 20.815 247.255 21.0167 246.521 21.42C245.825 21.7867 245.256 22.41 244.816 23.29C244.413 24.17 244.211 25.3617 244.211 26.865V41H231.781V0.189998H244.211V19.715L241.241 17.185C242.415 14.9117 243.991 13.2067 245.971 12.07C247.988 10.9333 250.225 10.365 252.681 10.365ZM286.832 41.55C283.422 41.55 280.397 40.89 277.757 39.57C275.153 38.2133 273.1 36.3617 271.597 34.015C270.093 31.6683 269.342 28.9733 269.342 25.93C269.342 22.8867 270.093 20.1917 271.597 17.845C273.1 15.4983 275.153 13.665 277.757 12.345C280.397 11.025 283.422 10.365 286.832 10.365C290.242 10.365 293.267 11.025 295.907 12.345C298.547 13.665 300.6 15.4983 302.067 17.845C303.57 20.1917 304.322 22.8867 304.322 25.93C304.322 28.9733 303.57 31.6683 302.067 34.015C300.6 36.3617 298.547 38.2133 295.907 39.57C293.267 40.89 290.242 41.55 286.832 41.55ZM286.832 31.87C287.748 31.87 288.573 31.65 289.307 31.21C290.04 30.77 290.627 30.11 291.067 29.23C291.507 28.3133 291.727 27.2133 291.727 25.93C291.727 24.61 291.507 23.5283 291.067 22.685C290.627 21.805 290.04 21.145 289.307 20.705C288.573 20.265 287.748 20.045 286.832 20.045C285.915 20.045 285.09 20.265 284.357 20.705C283.623 21.145 283.037 21.805 282.597 22.685C282.157 23.5283 281.937 24.61 281.937 25.93C281.937 27.2133 282.157 28.3133 282.597 29.23C283.037 30.11 283.623 30.77 284.357 31.21C285.09 31.65 285.915 31.87 286.832 31.87ZM314.776 41L304.326 10.915H316.096L324.016 35.335H318.351L326.656 10.915H337.216L345.136 35.335H339.636L347.831 10.915H358.721L348.271 41H336.171L329.846 21.64H333.476L326.876 41H314.776ZM373.512 41.55C370.908 41.55 368.488 40.9267 366.252 39.68C364.052 38.3967 362.292 36.6 360.972 34.29C359.652 31.9433 358.992 29.1567 358.992 25.93C358.992 22.7033 359.652 19.935 360.972 17.625C362.292 15.2783 364.052 13.4817 366.252 12.235C368.488 10.9883 370.908 10.365 373.512 10.365C376.152 10.365 378.315 10.9333 380.002 12.07C381.688 13.17 382.935 14.875 383.742 17.185C384.548 19.4583 384.952 22.3733 384.952 25.93C384.952 29.5233 384.567 32.475 383.797 34.785C383.063 37.095 381.853 38.8 380.167 39.9C378.517 41 376.298 41.55 373.512 41.55ZM376.482 31.87C377.398 31.87 378.223 31.65 378.957 31.21C379.69 30.77 380.277 30.11 380.717 29.23C381.157 28.3133 381.377 27.2133 381.377 25.93C381.377 24.61 381.157 23.5283 380.717 22.685C380.277 21.805 379.69 21.145 378.957 20.705C378.223 20.265 377.398 20.045 376.482 20.045C375.565 20.045 374.74 20.265 374.007 20.705C373.273 21.145 372.687 21.805 372.247 22.685C371.807 23.5283 371.587 24.61 371.587 25.93C371.587 27.2133 371.807 28.3133 372.247 29.23C372.687 30.11 373.273 30.77 374.007 31.21C374.74 31.65 375.565 31.87 376.482 31.87ZM381.762 41V36.93L381.707 25.93L381.157 14.93V0.189998H393.587V41H381.762ZM414.986 41.55C411.576 41.55 408.551 40.89 405.911 39.57C403.307 38.2133 401.254 36.3617 399.751 34.015C398.247 31.6683 397.496 28.9733 397.496 25.93C397.496 22.8867 398.247 20.1917 399.751 17.845C401.254 15.4983 403.307 13.665 405.911 12.345C408.551 11.025 411.576 10.365 414.986 10.365C418.396 10.365 421.421 11.025 424.061 12.345C426.701 13.665 428.754 15.4983 430.221 17.845C431.724 20.1917 432.476 22.8867 432.476 25.93C432.476 28.9733 431.724 31.6683 430.221 34.015C428.754 36.3617 426.701 38.2133 424.061 39.57C421.421 40.89 418.396 41.55 414.986 41.55ZM414.986 31.87C415.902 31.87 416.727 31.65 417.461 31.21C418.194 30.77 418.781 30.11 419.221 29.23C419.661 28.3133 419.881 27.2133 419.881 25.93C419.881 24.61 419.661 23.5283 419.221 22.685C418.781 21.805 418.194 21.145 417.461 20.705C416.727 20.265 415.902 20.045 414.986 20.045C414.069 20.045 413.244 20.265 412.511 20.705C411.777 21.145 411.191 21.805 410.751 22.685C410.311 23.5283 410.091 24.61 410.091 25.93C410.091 27.2133 410.311 28.3133 410.751 29.23C411.191 30.11 411.777 30.77 412.511 31.21C413.244 31.65 414.069 31.87 414.986 31.87ZM442.931 41L432.481 10.915H444.251L452.171 35.335H446.506L454.811 10.915H465.371L473.291 35.335H467.791L475.986 10.915H486.876L476.426 41H464.326L458.001 21.64H461.631L455.031 41H442.931ZM510.171 10.365C512.481 10.365 514.571 10.8417 516.441 11.795C518.311 12.7117 519.778 14.16 520.841 16.14C521.941 18.12 522.491 20.6867 522.491 23.84V41H510.061V25.985C510.061 24.115 509.731 22.795 509.071 22.025C508.411 21.2183 507.513 20.815 506.376 20.815C505.533 20.815 504.745 21.0167 504.011 21.42C503.315 21.7867 502.746 22.41 502.306 23.29C501.903 24.17 501.701 25.3617 501.701 26.865V41H489.271V10.915H501.096V19.715L498.731 17.185C499.905 14.9117 501.481 13.2067 503.461 12.07C505.478 10.9333 507.715 10.365 510.171 10.365Z" fill="white"/>
<path d="M0.135 41H-4.865V46H0.135V41ZM0.135 2.5V-2.5H-4.865V2.5H0.135ZM27.965 4.26L25.9105 8.8184L25.9224 8.82376L25.9343 8.82906L27.965 4.26ZM34.07 9.32L29.8778 12.0449L29.8883 12.0611L29.8989 12.0772L34.07 9.32ZM34.07 24.72L29.8989 21.9628L29.8989 21.9628L34.07 24.72ZM27.965 29.78L30.0195 34.3384L30.0339 34.3319L30.0483 34.3253L27.965 29.78ZM7.34 31.54L3.87377 27.9365L-5.07047 36.54H7.34V31.54ZM13.115 25.985H18.115V14.2378L9.64877 22.3815L13.115 25.985ZM13.115 41V46H18.115V41H13.115ZM13.115 27.415L9.54627 30.917L18.115 39.649V27.415H13.115ZM7.34 21.53V16.53H-4.57184L3.77127 25.032L7.34 21.53ZM21.805 20.32L18.4264 16.6342L18.3872 16.6701L18.3489 16.7068L21.805 20.32ZM21.805 13.72L18.3489 17.3332L18.3872 17.3699L18.4264 17.4058L21.805 13.72ZM7.34 12.51L3.77127 9.00798L-4.57184 17.51H7.34V12.51ZM13.115 6.625H18.115V-5.60897L9.54627 3.12298L13.115 6.625ZM5.135 41V2.5H-4.865V41H5.135ZM0.135 7.5H18.67V-2.5H0.135V7.5ZM18.67 7.5C21.7322 7.5 24.0971 8.00108 25.9105 8.8184L30.0195 -0.298408C26.6263 -1.82775 22.7945 -2.5 18.67 -2.5V7.5ZM25.9343 8.82906C27.7833 9.65085 29.0275 10.7368 29.8778 12.0449L38.2622 6.59506C36.2525 3.50319 33.4267 1.21582 29.9957 -0.30906L25.9343 8.82906ZM29.8989 12.0772C30.7128 13.3084 31.215 14.8839 31.215 17.02H41.215C41.215 13.2161 40.2872 9.65828 38.2411 6.56283L29.8989 12.0772ZM31.215 17.02C31.215 19.1561 30.7128 20.7316 29.8989 21.9628L38.2411 27.4772C40.2872 24.3817 41.215 20.8239 41.215 17.02H31.215ZM29.8989 21.9628C29.0442 23.2559 27.7772 24.3659 25.8817 25.2347L30.0483 34.3253C33.4328 32.7741 36.2358 30.5108 38.2411 27.4772L29.8989 21.9628ZM25.9105 25.2216C24.0971 26.0389 21.7322 26.54 18.67 26.54V36.54C22.7945 36.54 26.6263 35.8678 30.0195 34.3384L25.9105 25.2216ZM18.67 26.54H7.34V36.54H18.67V26.54ZM10.8062 35.1435L16.5812 29.5885L9.64877 22.3815L3.87377 27.9365L10.8062 35.1435ZM8.115 25.985V41H18.115V25.985H8.115ZM13.115 36H0.135V46H13.115V36ZM16.6837 23.913L10.9087 18.028L3.77127 25.032L9.54627 30.917L16.6837 23.913ZM7.34 26.53H17.845V16.53H7.34V26.53ZM17.845 26.53C20.2544 26.53 23.0931 26.007 25.2611 23.9332L18.3489 16.7068C18.5862 16.4798 18.77 16.4309 18.7214 16.4457C18.6529 16.4667 18.3888 16.53 17.845 16.53V26.53ZM25.1836 24.0058C27.2718 22.0916 28.125 19.5584 28.125 17.02H18.125C18.125 17.1906 18.0987 17.1679 18.1526 17.033C18.179 16.9671 18.2182 16.891 18.2715 16.814C18.3248 16.737 18.3799 16.6769 18.4264 16.6342L25.1836 24.0058ZM28.125 17.02C28.125 14.4816 27.2718 11.9484 25.1836 10.0342L18.4264 17.4058C18.3799 17.3631 18.3248 17.303 18.2715 17.226C18.2182 17.149 18.179 17.0729 18.1526 17.007C18.0987 16.8721 18.125 16.8494 18.125 17.02H28.125ZM25.2611 10.1068C23.0931 8.03305 20.2544 7.51 17.845 7.51V17.51C18.3888 17.51 18.6529 17.5733 18.7214 17.5943C18.77 17.6091 18.5862 17.5602 18.3489 17.3332L25.2611 10.1068ZM17.845 7.51H7.34V17.51H17.845V7.51ZM10.9087 16.012L16.6837 10.127L9.54627 3.12298L3.77127 9.00798L10.9087 16.012ZM8.115 6.625V27.415H18.115V6.625H8.115ZM46.674 40.12L44.3699 44.5575L44.4206 44.5838L44.4719 44.6089L46.674 40.12ZM42.164 35.555L37.7394 37.8837L37.748 37.9L37.7566 37.9161L42.164 35.555ZM40.514 10.915V5.915H35.514V10.915H40.514ZM52.944 10.915H57.944V5.915H52.944V10.915ZM58.884 30.55L61.4191 34.8597L61.4554 34.8383L61.4913 34.8164L58.884 30.55ZM60.479 28.625L65.0243 30.7083L65.0402 30.6736L65.0556 30.6387L60.479 28.625ZM61.084 10.915V5.915H56.084V10.915H61.084ZM73.514 10.915H78.514V5.915H73.514V10.915ZM73.514 41V46H78.514V41H73.514ZM61.689 41H56.689V46H61.689V41ZM61.689 32.31L65.2246 28.7745L56.689 20.2389V32.31H61.689ZM64.054 34.675L68.6083 36.7387L70.0366 33.5865L67.5896 31.1395L64.054 34.675ZM59.489 39.9L61.952 44.2513L61.9652 44.2438L61.9784 44.2363L59.489 39.9ZM53.164 36.55C51.4659 36.55 50.0671 36.2153 48.8761 35.6311L44.4719 44.6089C47.1676 45.9314 50.0955 46.55 53.164 46.55V36.55ZM48.9781 35.6825C48.0417 35.1963 47.2376 34.4375 46.5714 33.1939L37.7566 37.9161C39.2904 40.7792 41.4931 43.0637 44.3699 44.5575L48.9781 35.6825ZM46.5886 33.2263C45.983 32.0755 45.514 30.2704 45.514 27.525H35.514C35.514 31.3063 36.1451 34.8545 37.7394 37.8837L46.5886 33.2263ZM45.514 27.525V10.915H35.514V27.525H45.514ZM40.514 15.915H52.944V5.915H40.514V15.915ZM47.944 10.915V25.38H57.944V10.915H47.944ZM47.944 25.38C47.944 27.7276 48.263 30.7542 50.1342 33.0194L57.8438 26.6506C58.1402 27.0094 58.1367 27.2177 58.0731 26.9469C58.0136 26.6929 57.944 26.1973 57.944 25.38H47.944ZM50.1342 33.0194C51.8893 35.144 54.3269 36.1 56.849 36.1V26.1C56.8295 26.1 56.9944 26.0984 57.2491 26.2111C57.5179 26.33 57.7226 26.5039 57.8438 26.6506L50.1342 33.0194ZM56.849 36.1C58.4607 36.1 60.0161 35.685 61.4191 34.8597L56.3489 26.2403C56.4112 26.2037 56.4985 26.164 56.6032 26.1357C56.7076 26.1075 56.7944 26.1 56.849 26.1V36.1ZM61.4913 34.8164C63.1914 33.7774 64.311 32.2646 65.0243 30.7083L55.9337 26.5417C55.8857 26.6465 55.8736 26.6414 55.9277 26.5762C55.9866 26.505 56.1008 26.3911 56.2768 26.2836L61.4913 34.8164ZM65.0556 30.6387C65.8366 28.8637 66.084 26.9148 66.084 25.05H56.084C56.084 26.1185 55.9281 26.5529 55.9024 26.6113L65.0556 30.6387ZM66.084 25.05V10.915H56.084V25.05H66.084ZM61.084 15.915H73.514V5.915H61.084V15.915ZM68.514 10.915V41H78.514V10.915H68.514ZM73.514 36H61.689V46H73.514V36ZM66.689 41V32.31H56.689V41H66.689ZM58.1535 35.8455L60.5185 38.2105L67.5896 31.1395L65.2246 28.7745L58.1535 35.8455ZM59.4998 32.6113C58.8113 34.1306 57.9553 35.0151 56.9997 35.5637L61.9784 44.2363C64.9827 42.5115 67.17 39.9127 68.6083 36.7387L59.4998 32.6113ZM57.026 35.5487C55.848 36.2155 54.5904 36.55 53.164 36.55V46.55C56.2843 46.55 59.2434 45.7845 61.952 44.2513L57.026 35.5487ZM77.9273 41H72.9273V46H77.9273V41ZM77.9273 33.85L74.2074 30.509L72.9273 31.9343V33.85H77.9273ZM93.9323 16.03L98.3795 13.7447L95.0622 7.2893L90.2125 12.689L93.9323 16.03ZM95.9673 19.99V24.99H104.158L100.415 17.7047L95.9673 19.99ZM78.3673 19.99H73.3673V24.99H78.3673V19.99ZM78.3673 10.915V5.915H73.3673V10.915H78.3673ZM106.032 10.915H111.032V5.915H106.032V10.915ZM106.032 18.065L109.752 21.406L111.032 19.9807V18.065H106.032ZM90.0273 35.885L85.5802 38.1703L88.8975 44.6257L93.7472 39.226L90.0273 35.885ZM87.9923 31.925V26.925H79.8013L83.5452 34.2103L87.9923 31.925ZM106.637 31.925H111.637V26.925H106.637V31.925ZM106.637 41V46H111.637V41H106.637ZM82.9273 41V33.85H72.9273V41H82.9273ZM81.6472 37.191L97.6522 19.371L90.2125 12.689L74.2074 30.509L81.6472 37.191ZM89.4852 18.3153L91.5202 22.2753L100.415 17.7047L98.3795 13.7447L89.4852 18.3153ZM95.9673 14.99H78.3673V24.99H95.9673V14.99ZM83.3673 19.99V10.915H73.3673V19.99H83.3673ZM78.3673 15.915H106.032V5.915H78.3673V15.915ZM101.032 10.915V18.065H111.032V10.915H101.032ZM102.312 14.724L86.3074 32.544L93.7472 39.226L109.752 21.406L102.312 14.724ZM94.4745 33.5997L92.4395 29.6397L83.5452 34.2103L85.5802 38.1703L94.4745 33.5997ZM87.9923 36.925H106.637V26.925H87.9923V36.925ZM101.637 31.925V41H111.637V31.925H101.637ZM106.637 36H77.9273V46H106.637V36ZM109.295 41H104.295V46H109.295V41ZM109.295 33.85L105.575 30.509L104.295 31.9343V33.85H109.295ZM125.3 16.03L129.747 13.7447L126.429 7.2893L121.58 12.689L125.3 16.03ZM127.335 19.99V24.99H135.526L131.782 17.7047L127.335 19.99ZM109.735 19.99H104.735V24.99H109.735V19.99ZM109.735 10.915V5.915H104.735V10.915H109.735ZM137.4 10.915H142.4V5.915H137.4V10.915ZM137.4 18.065L141.119 21.406L142.4 19.9807V18.065H137.4ZM121.395 35.885L116.947 38.1703L120.265 44.6257L125.114 39.226L121.395 35.885ZM119.36 31.925V26.925H111.169L114.912 34.2103L119.36 31.925ZM138.005 31.925H143.005V26.925H138.005V31.925ZM138.005 41V46H143.005V41H138.005ZM114.295 41V33.85H104.295V41H114.295ZM113.014 37.191L129.019 19.371L121.58 12.689L105.575 30.509L113.014 37.191ZM120.852 18.3153L122.887 22.2753L131.782 17.7047L129.747 13.7447L120.852 18.3153ZM127.335 14.99H109.735V24.99H127.335V14.99ZM114.735 19.99V10.915H104.735V19.99H114.735ZM109.735 15.915H137.4V5.915H109.735V15.915ZM132.4 10.915V18.065H142.4V10.915H132.4ZM133.68 14.724L117.675 32.544L125.114 39.226L141.119 21.406L133.68 14.724ZM125.842 33.5997L123.807 29.6397L114.912 34.2103L116.947 38.1703L125.842 33.5997ZM119.36 36.925H138.005V26.925H119.36V36.925ZM133.005 31.925V41H143.005V31.925H133.005ZM138.005 36H109.295V46H138.005V36ZM141.762 41H136.762V46H141.762V41ZM141.762 0.189998V-4.81H136.762V0.189998H141.762ZM154.192 0.189998H159.192V-4.81H154.192V0.189998ZM154.192 41V46H159.192V41H154.192ZM146.762 41V0.189998H136.762V41H146.762ZM141.762 5.19H154.192V-4.81H141.762V5.19ZM149.192 0.189998V41H159.192V0.189998H149.192ZM154.192 36H141.762V46H154.192V36ZM166.686 39.515L164.45 43.9871L164.462 43.9931L164.474 43.999L166.686 39.515ZM160.361 33.96L156.132 36.6275L156.142 36.6424L156.151 36.6571L160.361 33.96ZM160.306 17.845L156.096 15.1479L156.081 15.1713L156.066 15.195L160.306 17.845ZM166.411 12.345L164.15 7.8855L164.137 7.89199L164.124 7.89856L166.411 12.345ZM183.351 12.125L181.222 16.6491L181.235 16.6551L181.248 16.6609L183.351 12.125ZM189.401 17.35L185.21 20.0773L185.226 20.1005L185.241 20.1235L189.401 17.35ZM191.656 27.415L196.643 27.7712L196.644 27.7594L196.645 27.7476L191.656 27.415ZM191.546 28.845V33.845H196.147L196.529 29.2602L191.546 28.845ZM168.391 28.845H163.391V33.845H168.391V28.845ZM168.391 22.85V17.85H163.391V22.85H168.391ZM184.946 22.85L186.561 27.5822L184.946 17.85V22.85ZM180.271 24.445H175.271V31.4339L181.886 29.1772L180.271 24.445ZM179.611 21.475L175.101 23.6323L175.158 23.7524L175.222 23.8693L179.611 21.475ZM177.906 19.55L175.181 23.7422L175.257 23.7912L175.334 23.8375L177.906 19.55ZM172.571 19.55L175.144 23.8375L175.173 23.8196L175.203 23.8013L172.571 19.55ZM170.866 21.475L175.338 23.7111L175.358 23.6718L175.377 23.6323L170.866 21.475ZM171.031 29.615L175.394 27.172L175.394 27.172L171.031 29.615ZM173.231 31.705L170.995 36.1771L171.065 36.2121L171.136 36.2448L173.231 31.705ZM180.106 31.815L178.249 27.1726L178.216 27.1859L178.183 27.1996L180.106 31.815ZM182.966 30.165L186.517 26.6444L183.469 23.5705L179.99 26.1472L182.966 30.165ZM189.456 36.71L193.117 40.1155L196.388 36.5994L193.007 33.1894L189.456 36.71ZM184.011 40.34L185.784 45.015L185.806 45.0069L185.827 44.9985L184.011 40.34ZM176.311 36.55C173.263 36.55 170.838 35.9881 168.898 35.031L164.474 43.999C168.034 45.7553 172.026 46.55 176.311 46.55V36.55ZM168.922 35.0429C166.941 34.0523 165.546 32.7843 164.571 31.2629L156.151 36.6571C158.183 39.829 161.005 42.2643 164.45 43.9871L168.922 35.0429ZM164.59 31.2925C163.618 29.7517 163.106 28.0093 163.106 25.93H153.106C153.106 29.7907 154.097 33.4016 156.132 36.6275L164.59 31.2925ZM163.106 25.93C163.106 23.727 163.625 21.9688 164.546 20.495L156.066 15.195C154.054 18.4145 153.106 22.0463 153.106 25.93H163.106ZM164.516 20.5421C165.527 18.9651 166.886 17.7232 168.698 16.7914L164.124 7.89856C160.803 9.60684 158.092 12.0315 156.096 15.1479L164.516 20.5421ZM168.672 16.8045C170.504 15.876 172.631 15.365 175.156 15.365V5.365C171.228 5.365 167.525 6.17399 164.15 7.8855L168.672 16.8045ZM175.156 15.365C177.448 15.365 179.446 15.8131 181.222 16.6491L185.48 7.6009C182.27 6.09028 178.804 5.365 175.156 5.365V15.365ZM181.248 16.6609C182.937 17.4442 184.226 18.564 185.21 20.0773L193.592 14.6227C191.57 11.516 188.826 9.15242 185.455 7.58906L181.248 16.6609ZM185.241 20.1235C186.12 21.4417 186.711 23.2801 186.711 25.93H196.711C196.711 21.7599 195.763 17.8783 193.561 14.5765L185.241 20.1235ZM186.711 25.93C186.711 26.2355 186.698 26.6169 186.667 27.0824L196.645 27.7476C196.687 27.1131 196.711 26.5045 196.711 25.93H186.711ZM186.669 27.0588C186.633 27.5555 186.598 28.0123 186.563 28.4298L196.529 29.2602C196.567 28.7977 196.606 28.3011 196.643 27.7712L186.669 27.0588ZM191.546 23.845H168.391V33.845H191.546V23.845ZM173.391 28.845V22.85H163.391V28.845H173.391ZM168.391 27.85H184.946V17.85H168.391V27.85ZM183.332 18.1178L178.657 19.7128L181.886 29.1772L186.561 27.5822L183.332 18.1178ZM185.271 24.445C185.271 22.6613 184.937 20.7977 184.001 19.0807L175.222 23.8693C175.165 23.7656 175.271 23.882 175.271 24.445H185.271ZM184.122 19.3177C183.336 17.6755 182.131 16.254 180.479 15.2625L175.334 23.8375C175.262 23.7944 175.193 23.7366 175.139 23.6764C175.089 23.6189 175.082 23.5927 175.101 23.6323L184.122 19.3177ZM180.631 15.3578C178.954 14.2677 177.089 13.835 175.266 13.835V23.835C175.393 23.835 175.425 23.8496 175.389 23.8399C175.372 23.8351 175.341 23.8255 175.303 23.8084C175.264 23.7911 175.222 23.769 175.181 23.7422L180.631 15.3578ZM175.266 13.835C173.437 13.835 171.602 14.2696 169.939 15.2987L175.203 23.8013C175.183 23.8136 175.162 23.8244 175.142 23.8329C175.122 23.8414 175.109 23.8454 175.105 23.8466C175.094 23.8493 175.141 23.835 175.266 23.835V13.835ZM169.999 15.2625C168.346 16.254 167.141 17.6755 166.356 19.3177L175.377 23.6323C175.396 23.5927 175.389 23.6189 175.338 23.6764C175.285 23.7366 175.215 23.7944 175.144 23.8375L169.999 15.2625ZM166.394 19.2389C165.555 20.9166 165.261 22.7207 165.261 24.445H175.261C175.261 23.8226 175.37 23.6467 175.338 23.7111L166.394 19.2389ZM165.261 24.445V26.315H175.261V24.445H165.261ZM165.261 26.315C165.261 28.2657 165.654 30.2464 166.669 32.058L175.394 27.172C175.382 27.1503 175.261 26.931 175.261 26.315H165.261ZM166.669 32.058C167.679 33.8623 169.16 35.2593 170.995 36.1771L175.467 27.2329C175.436 27.2172 175.419 27.2061 175.413 27.2017C175.407 27.1975 175.407 27.1969 175.41 27.2C175.413 27.2031 175.415 27.2052 175.414 27.204C175.413 27.2027 175.406 27.1932 175.394 27.172L166.669 32.058ZM171.136 36.2448C172.908 37.0629 174.819 37.365 176.696 37.365V27.365C175.86 27.365 175.461 27.2271 175.326 27.1652L171.136 36.2448ZM176.696 37.365C178.471 37.365 180.327 37.1398 182.029 36.4304L178.183 27.1996C178.126 27.2236 177.708 27.365 176.696 27.365V37.365ZM181.963 36.4574C183.362 35.8978 184.689 35.1113 185.942 34.1828L179.99 26.1472C179.264 26.6854 178.684 26.9989 178.249 27.1726L181.963 36.4574ZM179.416 33.6856L185.906 40.2306L193.007 33.1894L186.517 26.6444L179.416 33.6856ZM185.795 33.3045C184.881 34.2876 183.713 35.0898 182.195 35.6815L185.827 44.9985C188.636 43.9036 191.098 42.2858 193.117 40.1155L185.795 33.3045ZM182.238 35.665C180.828 36.2 178.896 36.55 176.311 36.55V46.55C179.74 46.55 182.941 46.0934 185.784 45.015L182.238 35.665ZM201.024 40.78L202.209 35.9224L201.024 40.78ZM193.599 37.92L189.025 35.8992L187.246 39.9253L191.014 42.2003L193.599 37.92ZM197.779 28.46L200.287 24.1348L195.461 21.3353L193.205 26.4392L197.779 28.46ZM203.884 31.045L202.469 35.8406L202.515 35.8542L202.562 35.867L203.884 31.045ZM213.399 31.76L214.429 36.6527L214.521 36.6334L214.611 36.6107L213.399 31.76ZM214.994 31.045L218.316 34.782L218.425 34.6844L218.529 34.5805L214.994 31.045ZM214.334 28.24L212.014 32.6692L212.014 32.6692L214.334 28.24ZM211.254 27.25L210.109 32.1171L210.191 32.1364L210.273 32.1529L211.254 27.25ZM207.129 26.37L206.057 31.2537L206.114 31.2663L206.171 31.2775L207.129 26.37ZM202.564 25.105L200.948 29.8367L200.965 29.8426L200.983 29.8484L202.564 25.105ZM198.384 23.07L195.582 27.2114L195.61 27.2302L195.638 27.2485L198.384 23.07ZM195.359 19.77L190.983 22.1884L190.996 22.2133L191.01 22.238L195.359 19.77ZM196.184 8.11L192.059 5.28384L192.053 5.2922L192.048 5.30058L196.184 8.11ZM202.179 3.38L200.171 -1.19935L200.16 -1.19423L200.148 -1.18906L202.179 3.38ZM219.834 2.445L218.772 7.33088L218.772 7.33088L219.834 2.445ZM226.654 4.975L231.272 6.89232L232.972 2.7967L229.109 0.619238L226.654 4.975ZM222.749 14.38L220.513 18.8521L225.31 21.2507L227.367 16.2973L222.749 14.38ZM217.194 12.235L215.887 17.0611L215.899 17.0645L215.912 17.0678L217.194 12.235ZM209.054 11.85L207.617 7.06087L207.617 7.06087L209.054 11.85ZM207.459 12.73L203.742 9.38518L203.645 9.49312L203.554 9.60652L207.459 12.73ZM208.174 15.535L205.854 19.9642L205.938 20.0084L206.024 20.0493L208.174 15.535ZM211.199 16.47L210.191 21.3673L210.204 21.3701L210.218 21.3729L211.199 16.47ZM215.379 17.295L214.421 22.2025L214.432 22.2046L214.443 22.2067L215.379 17.295ZM219.944 18.505L218.328 23.2367L218.328 23.2367L219.944 18.505ZM224.069 20.54L221.267 24.6814L221.295 24.7002L221.323 24.7185L224.069 20.54ZM227.149 23.84L222.8 26.308L222.8 26.308L227.149 23.84ZM226.269 35.39L222.144 32.5638L222.138 32.5722L222.133 32.5806L226.269 35.39ZM220.329 40.12L222.359 44.6891L222.386 44.6773L222.412 44.6653L220.329 40.12ZM210.374 36.88C207.529 36.88 204.811 36.5572 202.209 35.9224L199.839 45.6376C203.25 46.4695 206.765 46.88 210.374 46.88V36.88ZM202.209 35.9224C199.529 35.2688 197.566 34.4749 196.183 33.6397L191.014 42.2003C193.518 43.7118 196.505 44.8245 199.839 45.6376L202.209 35.9224ZM198.172 39.9408L202.352 30.4808L193.205 26.4392L189.025 35.8992L198.172 39.9408ZM195.27 32.7852C197.48 34.0671 199.888 35.079 202.469 35.8406L205.299 26.2494C203.406 25.691 201.744 24.9796 200.287 24.1348L195.27 32.7852ZM202.562 35.867C205.22 36.5958 207.865 36.98 210.484 36.98V26.98C208.849 26.98 207.095 26.7408 205.206 26.223L202.562 35.867ZM210.484 36.98C211.86 36.98 213.233 36.9046 214.429 36.6527L212.369 26.8673C212.172 26.9087 211.601 26.98 210.484 26.98V36.98ZM214.611 36.6107C215.643 36.3529 217.096 35.8663 218.316 34.782L211.672 27.308C211.987 27.0276 212.242 26.908 212.302 26.8812C212.37 26.8507 212.346 26.8692 212.186 26.9093L214.611 36.6107ZM218.529 34.5805C219.734 33.376 220.489 31.7428 220.489 29.89H210.489C210.489 29.4677 210.572 29.0002 210.769 28.5392C210.964 28.0838 211.225 27.743 211.458 27.5095L218.529 34.5805ZM220.489 29.89C220.489 26.8435 218.587 24.8234 216.654 23.8108L212.014 32.6692C211.892 32.6056 211.485 32.3669 211.104 31.8223C210.685 31.2238 210.489 30.5264 210.489 29.89H220.489ZM216.654 23.8108C215.307 23.1053 213.774 22.655 212.234 22.3471L210.273 32.1529C211.3 32.3583 211.821 32.568 212.014 32.6692L216.654 23.8108ZM212.399 22.3829C211.079 22.0724 209.641 21.7658 208.086 21.4625L206.171 31.2775C207.623 31.5608 208.935 31.8409 210.109 32.1171L212.399 22.3829ZM208.201 21.4863C206.879 21.196 205.527 20.8222 204.145 20.3616L200.983 29.8484C202.681 30.4144 204.372 30.884 206.057 31.2537L208.201 21.4863ZM204.18 20.3733C203.061 19.9913 202.049 19.4957 201.13 18.8915L195.638 27.2485C197.285 28.331 199.06 29.192 200.948 29.8367L204.18 20.3733ZM201.185 18.9286C200.6 18.5325 200.112 18.0144 199.707 17.302L191.01 22.238C192.146 24.239 193.674 25.9209 195.582 27.2114L201.185 18.9286ZM199.735 17.3516C199.476 16.8828 199.204 16.0463 199.204 14.6H189.204C189.204 17.2604 189.702 19.8705 190.983 22.1884L199.735 17.3516ZM199.204 14.6C199.204 13.203 199.571 12.0212 200.32 10.9194L192.048 5.30058C190.156 8.08542 189.204 11.2303 189.204 14.6H199.204ZM200.308 10.9362C201.044 9.86236 202.242 8.82346 204.209 7.94906L200.148 -1.18906C196.836 0.283202 194.037 2.39764 192.059 5.28384L200.308 10.9362ZM204.186 7.95934C206.048 7.14327 208.634 6.62 212.134 6.62V-3.38C207.714 -3.38 203.663 -2.72994 200.171 -1.19935L204.186 7.95934ZM212.134 6.62C214.382 6.62 216.593 6.85716 218.772 7.33088L220.896 -2.44088C218.015 -3.06716 215.092 -3.38 212.134 -3.38V6.62ZM218.772 7.33088C220.871 7.78716 222.665 8.46651 224.199 9.33076L229.109 0.619238C226.609 -0.789845 223.857 -1.79716 220.896 -2.44088L218.772 7.33088ZM222.036 3.05768L218.131 12.4627L227.367 16.2973L231.272 6.89232L222.036 3.05768ZM224.985 9.90786C222.817 8.82384 220.646 7.97789 218.476 7.40219L215.912 17.0678C217.335 17.4454 218.867 18.0295 220.513 18.8521L224.985 9.90786ZM218.501 7.40887C216.349 6.82609 214.186 6.52 212.024 6.52V16.52C213.235 16.52 214.519 16.6906 215.887 17.0611L218.501 7.40887ZM212.024 6.52C210.555 6.52 209.016 6.64126 207.617 7.06087L210.491 16.6391C210.489 16.6396 210.521 16.6301 210.592 16.6164C210.663 16.6028 210.764 16.5869 210.898 16.5719C211.171 16.5416 211.541 16.52 212.024 16.52V6.52ZM207.617 7.06087C206.45 7.41084 204.935 8.05944 203.742 9.38518L211.175 16.0748C210.892 16.3891 210.634 16.5501 210.52 16.6129C210.407 16.6752 210.38 16.6723 210.491 16.6391L207.617 7.06087ZM203.554 9.60652C202.603 10.7958 202.019 12.2854 202.019 13.94H212.019C212.019 14.2878 211.959 14.6563 211.828 15.0162C211.698 15.3721 211.525 15.6515 211.363 15.8535L203.554 9.60652ZM202.019 13.94C202.019 17.0589 204.045 19.0165 205.854 19.9642L210.494 11.1058C210.581 11.1514 210.974 11.3722 211.357 11.9012C211.786 12.4934 212.019 13.223 212.019 13.94H202.019ZM206.024 20.0493C207.289 20.6515 208.722 21.065 210.191 21.3673L212.207 11.5727C211.182 11.3616 210.599 11.1519 210.323 11.0207L206.024 20.0493ZM210.218 21.3729C211.51 21.6313 212.911 21.9079 214.421 22.2025L216.336 12.3875C214.839 12.0955 213.454 11.822 212.179 11.5671L210.218 21.3729ZM214.443 22.2067C215.75 22.4555 217.044 22.7983 218.328 23.2367L221.56 13.7733C219.837 13.1851 218.088 12.7212 216.314 12.3833L214.443 22.2067ZM218.328 23.2367C219.435 23.6147 220.408 24.1 221.267 24.6814L226.87 16.3986C225.237 15.2934 223.459 14.422 221.56 13.7732L218.328 23.2367ZM221.323 24.7185C221.933 25.1196 222.415 25.6291 222.8 26.308L231.497 21.372C230.343 19.3376 228.771 17.647 226.815 16.3615L221.323 24.7185ZM222.8 26.308C223.036 26.7231 223.304 27.5014 223.304 28.9H233.304C233.304 26.2653 232.802 23.6702 231.497 21.372L222.8 26.308ZM223.304 28.9C223.304 30.2136 222.944 31.3958 222.144 32.5638L230.393 38.2162C232.306 35.4242 233.304 32.2797 233.304 28.9H223.304ZM222.133 32.5806C221.434 33.6089 220.251 34.6556 218.246 35.5747L222.412 44.6653C225.687 43.1644 228.463 41.0577 230.405 38.1994L222.133 32.5806ZM218.298 35.5509C216.493 36.3533 213.922 36.88 210.374 36.88V46.88C214.819 46.88 218.885 46.2334 222.359 44.6891L218.298 35.5509ZM258.951 11.795L256.68 16.2495L256.715 16.2673L256.75 16.2846L258.951 11.795ZM263.351 16.14L258.946 18.5056L258.963 18.537L258.98 18.5682L263.351 16.14ZM265.001 41V46H270.001V41H265.001ZM252.571 41H247.571V46H252.571V41ZM251.581 22.025L247.711 25.1912L247.748 25.2355L247.785 25.279L251.581 22.025ZM246.521 21.42L248.85 25.8446L248.891 25.8232L248.931 25.8011L246.521 21.42ZM244.816 23.29L240.344 21.0539L240.306 21.1297L240.271 21.2067L244.816 23.29ZM244.211 41V46H249.211V41H244.211ZM231.781 41H226.781V46H231.781V41ZM231.781 0.189998V-4.81H226.781V0.189998H231.781ZM244.211 0.189998H249.211V-4.81H244.211V0.189998ZM244.211 19.715L240.969 23.5212L249.211 30.5425V19.715H244.211ZM241.241 17.185L236.798 14.8918L234.978 18.418L237.999 20.9912L241.241 17.185ZM245.971 12.07L243.516 7.71424L243.499 7.72392L243.482 7.73373L245.971 12.07ZM252.681 15.365C254.283 15.365 255.582 15.6897 256.68 16.2495L261.222 7.34047C258.58 5.99365 255.7 5.365 252.681 5.365V15.365ZM256.75 16.2846C257.606 16.7041 258.336 17.3697 258.946 18.5056L267.756 13.7744C266.24 10.9503 264.036 8.71923 261.152 7.30539L256.75 16.2846ZM258.98 18.5682C259.537 19.5708 260.001 21.2201 260.001 23.84H270.001C270.001 20.1532 269.365 16.6692 267.722 13.7118L258.98 18.5682ZM260.001 23.84V41H270.001V23.84H260.001ZM265.001 36H252.571V46H265.001V36ZM257.571 41V25.985H247.571V41H257.571ZM257.571 25.985C257.571 23.8118 257.244 20.949 255.378 18.771L247.785 25.279C247.468 24.9086 247.435 24.6528 247.473 24.8052C247.51 24.9521 247.571 25.3182 247.571 25.985H257.571ZM255.451 18.8588C253.748 16.7768 251.368 15.815 248.886 15.815V25.815C248.857 25.815 248.651 25.8076 248.365 25.6788C248.065 25.5445 247.843 25.3519 247.711 25.1912L255.451 18.8588ZM248.886 15.815C247.207 15.815 245.589 16.2263 244.112 17.0389L248.931 25.8011C248.936 25.798 248.936 25.7989 248.929 25.8015C248.922 25.8043 248.913 25.8075 248.902 25.8103C248.891 25.8131 248.882 25.8145 248.877 25.8151C248.873 25.8156 248.875 25.815 248.886 25.815V15.815ZM244.193 16.9954C242.361 17.9593 241.134 19.4742 240.344 21.0539L249.288 25.5261C249.336 25.431 249.34 25.452 249.267 25.5313C249.189 25.6173 249.05 25.7391 248.85 25.8446L244.193 16.9954ZM240.271 21.2067C239.448 23.0016 239.211 24.9997 239.211 26.865H249.211C249.211 26.3285 249.248 25.9413 249.292 25.678C249.337 25.4116 249.381 25.3314 249.362 25.3733L240.271 21.2067ZM239.211 26.865V41H249.211V26.865H239.211ZM244.211 36H231.781V46H244.211V36ZM236.781 41V0.189998H226.781V41H236.781ZM231.781 5.19H244.211V-4.81H231.781V5.19ZM239.211 0.189998V19.715H249.211V0.189998H239.211ZM247.454 15.9088L244.484 13.3788L237.999 20.9912L240.969 23.5212L247.454 15.9088ZM245.684 19.4782C246.471 17.9533 247.413 17.0077 248.461 16.4063L243.482 7.73373C240.57 9.40562 238.358 11.8701 236.798 14.8918L245.684 19.4782ZM248.426 16.4258C249.648 15.7374 251.03 15.365 252.681 15.365V5.365C249.419 5.365 246.328 6.12924 243.516 7.71424L248.426 16.4258ZM277.757 39.57L275.446 44.004L275.483 44.0234L275.52 44.0421L277.757 39.57ZM271.597 34.015L267.386 36.7121L267.386 36.7121L271.597 34.015ZM271.597 17.845L267.386 15.1479L267.386 15.1479L271.597 17.845ZM277.757 12.345L275.52 7.87286L275.508 7.87914L275.495 7.8855L277.757 12.345ZM295.907 12.345L293.67 16.8171L293.67 16.8171L295.907 12.345ZM302.067 17.845L297.827 20.495L297.841 20.5186L297.856 20.5421L302.067 17.845ZM302.067 34.015L297.856 31.3179L297.841 31.3414L297.827 31.365L302.067 34.015ZM295.907 39.57L298.143 44.0421L298.167 44.0298L298.192 44.0172L295.907 39.57ZM289.307 31.21L286.734 26.9225L286.734 26.9225L289.307 31.21ZM291.067 29.23L295.539 31.4661L295.557 31.43L295.574 31.3937L291.067 29.23ZM291.067 22.685L286.594 24.9211L286.614 24.9596L286.634 24.9978L291.067 22.685ZM289.307 20.705L286.734 24.9925L286.734 24.9925L289.307 20.705ZM284.357 20.705L281.784 16.4175L281.784 16.4175L284.357 20.705ZM282.597 22.685L287.029 24.9978L287.049 24.9596L287.069 24.9211L282.597 22.685ZM282.597 29.23L278.089 31.3937L278.106 31.43L278.124 31.4661L282.597 29.23ZM284.357 31.21L281.784 35.4975L281.784 35.4975L284.357 31.21ZM286.832 36.55C284.077 36.55 281.838 36.0205 279.993 35.0979L275.52 44.0421C278.955 45.7595 282.766 46.55 286.832 46.55V36.55ZM280.067 35.136C278.195 34.1602 276.814 32.89 275.807 31.3179L267.386 36.7121C269.386 39.8333 272.112 42.2664 275.446 44.004L280.067 35.136ZM275.807 31.3179C274.866 29.8499 274.342 28.1087 274.342 25.93H264.342C264.342 29.838 265.32 33.4868 267.386 36.7121L275.807 31.3179ZM274.342 25.93C274.342 23.7513 274.866 22.0101 275.807 20.5421L267.386 15.1479C265.32 18.3732 264.342 22.022 264.342 25.93H274.342ZM275.807 20.5421C276.806 18.9824 278.17 17.7412 280.018 16.8045L275.495 7.8855C272.136 9.58878 269.394 12.0143 267.386 15.1479L275.807 20.5421ZM279.993 16.8171C281.838 15.8945 284.077 15.365 286.832 15.365V5.365C282.766 5.365 278.955 6.1555 275.52 7.87286L279.993 16.8171ZM286.832 15.365C289.586 15.365 291.825 15.8945 293.67 16.8171L298.143 7.87286C294.708 6.1555 290.897 5.365 286.832 5.365V15.365ZM293.67 16.8171C295.545 17.7542 296.88 18.9809 297.827 20.495L306.307 15.195C304.319 12.0158 301.548 9.57577 298.143 7.87286L293.67 16.8171ZM297.856 20.5421C298.797 22.0101 299.322 23.7513 299.322 25.93H309.322C309.322 22.022 308.343 18.3732 306.277 15.1479L297.856 20.5421ZM299.322 25.93C299.322 28.1087 298.797 29.8499 297.856 31.3179L306.277 36.7121C308.343 33.4867 309.322 29.838 309.322 25.93H299.322ZM297.827 31.365C296.872 32.8918 295.52 34.1471 293.621 35.1228L298.192 44.0172C301.573 42.2796 304.327 39.8315 306.307 36.665L297.827 31.365ZM293.67 35.0979C291.825 36.0205 289.586 36.55 286.832 36.55V46.55C290.897 46.55 294.708 45.7595 298.143 44.0421L293.67 35.0979ZM286.832 36.87C288.587 36.87 290.313 36.4373 291.879 35.4975L286.734 26.9225C286.748 26.9139 286.767 26.904 286.789 26.8947C286.811 26.8853 286.832 26.8784 286.849 26.8738C286.887 26.8638 286.887 26.87 286.832 26.87V36.87ZM291.879 35.4975C293.545 34.498 294.739 33.0657 295.539 31.4661L286.594 26.9939C286.549 27.0854 286.53 27.0962 286.559 27.0632C286.574 27.0471 286.596 27.024 286.628 26.9976C286.66 26.9712 286.696 26.9455 286.734 26.9225L291.879 35.4975ZM295.574 31.3937C296.412 29.6487 296.727 27.7717 296.727 25.93H286.727C286.727 26.655 286.601 26.978 286.559 27.0663L295.574 31.3937ZM296.727 25.93C296.727 24.0999 296.428 22.152 295.499 20.3722L286.634 24.9978C286.585 24.9047 286.727 25.1201 286.727 25.93H296.727ZM295.539 20.4489C294.739 18.8493 293.545 17.417 291.879 16.4175L286.734 24.9925C286.696 24.9695 286.66 24.9438 286.628 24.9174C286.596 24.891 286.574 24.8679 286.559 24.8518C286.53 24.8188 286.549 24.8296 286.594 24.9211L295.539 20.4489ZM291.879 16.4175C290.313 15.4777 288.587 15.045 286.832 15.045V25.045C286.887 25.045 286.887 25.0512 286.849 25.0412C286.832 25.0366 286.811 25.0297 286.789 25.0203C286.767 25.011 286.748 25.0011 286.734 24.9925L291.879 16.4175ZM286.832 15.045C285.076 15.045 283.35 15.4777 281.784 16.4175L286.929 24.9925C286.915 25.0011 286.896 25.011 286.874 25.0203C286.852 25.0297 286.831 25.0366 286.814 25.0412C286.776 25.0512 286.776 25.045 286.832 25.045V15.045ZM281.784 16.4175C280.118 17.417 278.924 18.8493 278.124 20.4489L287.069 24.9211C287.114 24.8296 287.133 24.8188 287.104 24.8518C287.089 24.8679 287.067 24.891 287.035 24.9174C287.003 24.9438 286.967 24.9695 286.929 24.9925L281.784 16.4175ZM278.164 20.3722C277.235 22.152 276.937 24.0999 276.937 25.93H286.937C286.937 25.1201 287.078 24.9047 287.029 24.9978L278.164 20.3722ZM276.937 25.93C276.937 27.7717 277.251 29.6487 278.089 31.3937L287.104 27.0663C287.062 26.978 286.937 26.655 286.937 25.93H276.937ZM278.124 31.4661C278.924 33.0657 280.118 34.498 281.784 35.4975L286.929 26.9225C286.967 26.9455 287.003 26.9712 287.035 26.9976C287.067 27.024 287.089 27.0471 287.104 27.0632C287.133 27.0962 287.114 27.0854 287.069 26.9939L278.124 31.4661ZM281.784 35.4975C283.35 36.4373 285.076 36.87 286.832 36.87V26.87C286.776 26.87 286.776 26.8638 286.814 26.8738C286.831 26.8784 286.852 26.8853 286.874 26.8947C286.896 26.904 286.915 26.9139 286.929 26.9225L281.784 35.4975ZM314.776 41L310.053 42.6406L311.22 46H314.776V41ZM304.326 10.915V5.915H297.296L299.603 12.5556L304.326 10.915ZM316.096 10.915L320.852 9.37247L319.731 5.915H316.096V10.915ZM324.016 35.335V40.335H330.894L328.772 33.7925L324.016 35.335ZM318.351 35.335L313.618 33.7251L311.37 40.335H318.351V35.335ZM326.656 10.915V5.915H323.075L321.923 9.3051L326.656 10.915ZM337.216 10.915L341.972 9.37247L340.851 5.915H337.216V10.915ZM345.136 35.335V40.335H352.014L349.892 33.7925L345.136 35.335ZM339.636 35.335L334.896 33.7443L332.684 40.335H339.636V35.335ZM347.831 10.915V5.915H344.235L343.091 9.32425L347.831 10.915ZM358.721 10.915L363.444 12.5556L365.751 5.915H358.721V10.915ZM348.271 41V46H351.828L352.994 42.6406L348.271 41ZM336.171 41L331.418 42.5528L332.545 46H336.171V41ZM329.846 21.64V16.64H322.953L325.093 23.1928L329.846 21.64ZM333.476 21.64L338.209 23.2534L340.463 16.64H333.476V21.64ZM326.876 41V46H330.454L331.609 42.6134L326.876 41ZM319.499 39.3594L309.049 9.2744L299.603 12.5556L310.053 42.6406L319.499 39.3594ZM304.326 15.915H316.096V5.915H304.326V15.915ZM311.34 12.4575L319.26 36.8775L328.772 33.7925L320.852 9.37247L311.34 12.4575ZM324.016 30.335H318.351V40.335H324.016V30.335ZM323.085 36.9449L331.39 12.5249L321.923 9.3051L313.618 33.7251L323.085 36.9449ZM326.656 15.915H337.216V5.915H326.656V15.915ZM332.46 12.4575L340.38 36.8775L349.892 33.7925L341.972 9.37247L332.46 12.4575ZM345.136 30.335H339.636V40.335H345.136V30.335ZM344.376 36.9257L352.571 12.5057L343.091 9.32425L334.896 33.7443L344.376 36.9257ZM347.831 15.915H358.721V5.915H347.831V15.915ZM353.998 9.2744L343.548 39.3594L352.994 42.6406L363.444 12.5556L353.998 9.2744ZM348.271 36H336.171V46H348.271V36ZM340.924 39.4472L334.599 20.0872L325.093 23.1928L331.418 42.5528L340.924 39.4472ZM329.846 26.64H333.476V16.64H329.846V26.64ZM328.744 20.0266L322.144 39.3866L331.609 42.6134L338.209 23.2534L328.744 20.0266ZM326.876 36H314.776V46H326.876V36ZM366.252 39.68L363.732 43.9989L363.774 44.0236L363.817 44.0474L366.252 39.68ZM360.972 34.29L356.614 36.7413L356.622 36.756L356.63 36.7707L360.972 34.29ZM360.972 17.625L365.313 20.1057L365.321 20.091L365.329 20.0763L360.972 17.625ZM366.252 12.235L363.817 7.8676L363.802 7.87619L363.786 7.88489L366.252 12.235ZM380.002 12.07L377.207 16.2163L377.239 16.2374L377.27 16.2581L380.002 12.07ZM383.742 17.185L379.021 18.8334L379.025 18.8452L379.029 18.857L383.742 17.185ZM383.797 34.785L379.053 33.2039L379.042 33.2379L379.031 33.2721L383.797 34.785ZM380.167 39.9L377.435 35.7119L377.414 35.7257L377.393 35.7397L380.167 39.9ZM378.957 31.21L381.529 35.4975L381.529 35.4975L378.957 31.21ZM380.717 29.23L385.189 31.4661L385.207 31.43L385.224 31.3937L380.717 29.23ZM380.717 22.685L376.244 24.9211L376.264 24.9596L376.284 24.9978L380.717 22.685ZM378.957 20.705L381.529 16.4175L381.529 16.4175L378.957 20.705ZM374.007 20.705L376.579 24.9925L376.579 24.9925L374.007 20.705ZM372.247 22.685L376.679 24.9978L376.699 24.9596L376.719 24.9211L372.247 22.685ZM372.247 29.23L367.739 31.3937L367.756 31.43L367.774 31.4661L372.247 29.23ZM374.007 31.21L376.579 26.9225L376.579 26.9225L374.007 31.21ZM381.762 41H376.762V46H381.762V41ZM381.762 36.93H386.762V36.9175L386.761 36.905L381.762 36.93ZM381.707 25.93L386.706 25.905L386.706 25.7926L386.7 25.6803L381.707 25.93ZM381.157 14.93H376.157V15.0549L376.163 15.1797L381.157 14.93ZM381.157 0.189998V-4.81H376.157V0.189998H381.157ZM393.587 0.189998H398.587V-4.81H393.587V0.189998ZM393.587 41V46H398.587V41H393.587ZM373.512 36.55C371.745 36.55 370.165 36.1372 368.686 35.3126L363.817 44.0474C366.811 45.7161 370.071 46.55 373.512 46.55V36.55ZM368.771 35.3611C367.363 34.5401 366.218 33.3927 365.313 31.8093L356.63 36.7707C358.366 39.8073 360.74 42.2532 363.732 43.9989L368.771 35.3611ZM365.329 31.8387C364.507 30.376 363.992 28.4682 363.992 25.93H353.992C353.992 29.8451 354.796 33.5107 356.614 36.7413L365.329 31.8387ZM363.992 25.93C363.992 23.3889 364.508 21.5147 365.313 20.1057L356.63 15.1443C354.795 18.3553 353.992 22.0178 353.992 25.93H363.992ZM365.329 20.0763C366.233 18.4696 367.36 17.3536 368.717 16.5851L363.786 7.88489C360.743 9.60969 358.35 12.0871 356.614 15.1737L365.329 20.0763ZM368.686 16.6024C370.165 15.7778 371.745 15.365 373.512 15.365V5.365C370.071 5.365 366.811 6.19891 363.817 7.8676L368.686 16.6024ZM373.512 15.365C375.45 15.365 376.56 15.7803 377.207 16.2163L382.796 7.92367C380.069 6.08637 376.853 5.365 373.512 5.365V15.365ZM377.27 16.2581C377.846 16.6334 378.498 17.3359 379.021 18.8334L388.462 15.5366C387.372 12.4141 385.531 9.70656 382.733 7.88195L377.27 16.2581ZM379.029 18.857C379.578 20.4033 379.952 22.6984 379.952 25.93H389.952C389.952 22.0482 389.518 18.5133 388.454 15.5129L379.029 18.857ZM379.952 25.93C379.952 29.2166 379.593 31.5842 379.053 33.2039L388.54 36.3661C389.54 33.3658 389.952 29.83 389.952 25.93H379.952ZM379.031 33.2721C378.573 34.7149 377.969 35.3638 377.435 35.7119L382.898 44.0881C385.737 42.2362 387.554 39.4751 388.562 36.2979L379.031 33.2721ZM377.393 35.7397C376.835 36.1119 375.696 36.55 373.512 36.55V46.55C376.901 46.55 380.198 45.8881 382.94 44.0603L377.393 35.7397ZM376.482 36.87C378.237 36.87 379.963 36.4373 381.529 35.4975L376.384 26.9225C376.398 26.9139 376.417 26.904 376.439 26.8947C376.461 26.8853 376.482 26.8784 376.499 26.8738C376.537 26.8638 376.537 26.87 376.482 26.87V36.87ZM381.529 35.4975C383.195 34.498 384.389 33.0657 385.189 31.4661L376.244 26.9939C376.199 27.0854 376.18 27.0962 376.209 27.0632C376.224 27.0471 376.246 27.024 376.278 26.9976C376.31 26.9712 376.346 26.9455 376.384 26.9225L381.529 35.4975ZM385.224 31.3937C386.062 29.6487 386.377 27.7716 386.377 25.93H376.377C376.377 26.655 376.251 26.978 376.209 27.0663L385.224 31.3937ZM386.377 25.93C386.377 24.0999 386.078 22.152 385.149 20.3722L376.284 24.9978C376.235 24.9047 376.377 25.1201 376.377 25.93H386.377ZM385.189 20.4489C384.389 18.8493 383.195 17.417 381.529 16.4175L376.384 24.9925C376.346 24.9695 376.31 24.9438 376.278 24.9174C376.246 24.891 376.224 24.8679 376.209 24.8518C376.18 24.8188 376.199 24.8296 376.244 24.9211L385.189 20.4489ZM381.529 16.4175C379.963 15.4777 378.237 15.045 376.482 15.045V25.045C376.537 25.045 376.537 25.0512 376.499 25.0412C376.482 25.0366 376.461 25.0297 376.439 25.0203C376.417 25.011 376.398 25.0011 376.384 24.9925L381.529 16.4175ZM376.482 15.045C374.726 15.045 373 15.4777 371.434 16.4175L376.579 24.9925C376.565 25.0011 376.546 25.011 376.524 25.0203C376.502 25.0297 376.481 25.0366 376.464 25.0412C376.426 25.0512 376.426 25.045 376.482 25.045V15.045ZM371.434 16.4175C369.768 17.417 368.574 18.8493 367.774 20.4489L376.719 24.9211C376.764 24.8296 376.783 24.8188 376.754 24.8518C376.739 24.8679 376.717 24.891 376.685 24.9174C376.653 24.9438 376.617 24.9695 376.579 24.9925L371.434 16.4175ZM367.814 20.3722C366.885 22.152 366.587 24.0999 366.587 25.93H376.587C376.587 25.1201 376.728 24.9047 376.679 24.9978L367.814 20.3722ZM366.587 25.93C366.587 27.7716 366.901 29.6487 367.739 31.3937L376.754 27.0663C376.712 26.978 376.587 26.655 376.587 25.93H366.587ZM367.774 31.4661C368.574 33.0657 369.768 34.498 371.434 35.4975L376.579 26.9225C376.617 26.9455 376.653 26.9712 376.685 26.9976C376.717 27.024 376.739 27.0471 376.754 27.0632C376.783 27.0962 376.764 27.0854 376.719 26.9939L367.774 31.4661ZM371.434 35.4975C373 36.4373 374.726 36.87 376.482 36.87V26.87C376.426 26.87 376.426 26.8638 376.464 26.8738C376.481 26.8784 376.502 26.8853 376.524 26.8947C376.546 26.904 376.565 26.9139 376.579 26.9225L371.434 35.4975ZM386.762 41V36.93H376.762V41H386.762ZM386.761 36.905L386.706 25.905L376.707 25.955L376.762 36.955L386.761 36.905ZM386.7 25.6803L386.15 14.6803L376.163 15.1797L376.713 26.1797L386.7 25.6803ZM386.157 14.93V0.189998H376.157V14.93H386.157ZM381.157 5.19H393.587V-4.81H381.157V5.19ZM388.587 0.189998V41H398.587V0.189998H388.587ZM393.587 36H381.762V46H393.587V36ZM405.911 39.57L403.6 44.004L403.637 44.0234L403.675 44.0421L405.911 39.57ZM399.751 34.015L395.541 36.7121L395.541 36.7121L399.751 34.015ZM399.751 17.845L395.541 15.1479L395.541 15.1479L399.751 17.845ZM405.911 12.345L403.675 7.87286L403.662 7.87914L403.65 7.8855L405.911 12.345ZM424.061 12.345L421.825 16.8171L421.825 16.8171L424.061 12.345ZM430.221 17.845L425.981 20.495L425.996 20.5186L426.011 20.5421L430.221 17.845ZM430.221 34.015L426.011 31.3179L425.996 31.3414L425.981 31.365L430.221 34.015ZM424.061 39.57L426.297 44.0421L426.322 44.0298L426.346 44.0172L424.061 39.57ZM417.461 31.21L414.888 26.9225L414.888 26.9225L417.461 31.21ZM419.221 29.23L423.693 31.4661L423.711 31.43L423.728 31.3937L419.221 29.23ZM419.221 22.685L414.749 24.9211L414.768 24.9596L414.788 24.9978L419.221 22.685ZM417.461 20.705L414.888 24.9925L414.888 24.9925L417.461 20.705ZM412.511 20.705L409.938 16.4175L409.938 16.4175L412.511 20.705ZM410.751 22.685L415.184 24.9978L415.204 24.9596L415.223 24.9211L410.751 22.685ZM410.751 29.23L406.243 31.3937L406.261 31.43L406.279 31.4661L410.751 29.23ZM412.511 31.21L409.938 35.4975L409.938 35.4975L412.511 31.21ZM414.986 36.55C412.231 36.55 409.992 36.0205 408.147 35.0979L403.675 44.0421C407.109 45.7595 410.92 46.55 414.986 46.55V36.55ZM408.222 35.136C406.349 34.1602 404.968 32.89 403.961 31.3179L395.541 36.7121C397.54 39.8333 400.266 42.2664 403.6 44.004L408.222 35.136ZM403.961 31.3179C403.021 29.8499 402.496 28.1087 402.496 25.93H392.496C392.496 29.838 393.474 33.4868 395.541 36.7121L403.961 31.3179ZM402.496 25.93C402.496 23.7513 403.021 22.0101 403.961 20.5421L395.541 15.1479C393.474 18.3732 392.496 22.022 392.496 25.93H402.496ZM403.961 20.5421C404.96 18.9824 406.325 17.7412 408.172 16.8045L403.65 7.8855C400.29 9.58878 397.548 12.0143 395.541 15.1479L403.961 20.5421ZM408.147 16.8171C409.992 15.8945 412.231 15.365 414.986 15.365V5.365C410.92 5.365 407.109 6.1555 403.675 7.87286L408.147 16.8171ZM414.986 15.365C417.74 15.365 419.979 15.8945 421.825 16.8171L426.297 7.87286C422.862 6.1555 419.051 5.365 414.986 5.365V15.365ZM421.825 16.8171C423.699 17.7542 425.035 18.9809 425.981 20.495L434.461 15.195C432.474 12.0158 429.703 9.57577 426.297 7.87286L421.825 16.8171ZM426.011 20.5421C426.951 22.0101 427.476 23.7513 427.476 25.93H437.476C437.476 22.022 436.497 18.3732 434.431 15.1479L426.011 20.5421ZM427.476 25.93C427.476 28.1087 426.951 29.8499 426.011 31.3179L434.431 36.7121C436.497 33.4867 437.476 29.838 437.476 25.93H427.476ZM425.981 31.365C425.027 32.8918 423.674 34.1471 421.775 35.1228L426.346 44.0172C429.727 42.2796 432.482 39.8315 434.461 36.665L425.981 31.365ZM421.825 35.0979C419.979 36.0205 417.74 36.55 414.986 36.55V46.55C419.051 46.55 422.862 45.7595 426.297 44.0421L421.825 35.0979ZM414.986 36.87C416.741 36.87 418.467 36.4373 420.033 35.4975L414.888 26.9225C414.903 26.9139 414.922 26.904 414.944 26.8947C414.966 26.8853 414.986 26.8784 415.004 26.8738C415.041 26.8638 415.041 26.87 414.986 26.87V36.87ZM420.033 35.4975C421.699 34.498 422.893 33.0657 423.693 31.4661L414.749 26.9939C414.703 27.0854 414.684 27.0962 414.714 27.0632C414.728 27.0471 414.751 27.024 414.782 26.9976C414.814 26.9712 414.85 26.9455 414.888 26.9225L420.033 35.4975ZM423.728 31.3937C424.566 29.6487 424.881 27.7717 424.881 25.93H414.881C414.881 26.655 414.756 26.978 414.713 27.0663L423.728 31.3937ZM424.881 25.93C424.881 24.0999 424.582 22.152 423.654 20.3722L414.788 24.9978C414.739 24.9047 414.881 25.1201 414.881 25.93H424.881ZM423.693 20.4489C422.893 18.8493 421.699 17.417 420.033 16.4175L414.888 24.9925C414.85 24.9695 414.814 24.9438 414.782 24.9174C414.751 24.891 414.728 24.8679 414.714 24.8518C414.684 24.8188 414.703 24.8296 414.749 24.9211L423.693 20.4489ZM420.033 16.4175C418.467 15.4777 416.741 15.045 414.986 15.045V25.045C415.041 25.045 415.041 25.0512 415.004 25.0412C414.986 25.0366 414.966 25.0297 414.944 25.0203C414.922 25.011 414.903 25.0011 414.888 24.9925L420.033 16.4175ZM414.986 15.045C413.231 15.045 411.505 15.4777 409.938 16.4175L415.083 24.9925C415.069 25.0011 415.05 25.011 415.028 25.0203C415.006 25.0297 414.985 25.0366 414.968 25.0412C414.93 25.0512 414.931 25.045 414.986 25.045V15.045ZM409.938 16.4175C408.273 17.417 407.078 18.8493 406.279 20.4489L415.223 24.9211C415.269 24.8296 415.287 24.8188 415.258 24.8518C415.244 24.8679 415.221 24.891 415.189 24.9174C415.157 24.9438 415.122 24.9695 415.083 24.9925L409.938 16.4175ZM406.318 20.3722C405.389 22.152 405.091 24.0999 405.091 25.93H415.091C415.091 25.1201 415.232 24.9047 415.184 24.9978L406.318 20.3722ZM405.091 25.93C405.091 27.7717 405.406 29.6487 406.243 31.3937L415.258 27.0663C415.216 26.978 415.091 26.655 415.091 25.93H405.091ZM406.279 31.4661C407.078 33.0657 408.273 34.498 409.938 35.4975L415.083 26.9225C415.122 26.9455 415.157 26.9712 415.189 26.9976C415.221 27.024 415.244 27.0471 415.258 27.0632C415.287 27.0962 415.269 27.0854 415.223 26.9939L406.279 31.4661ZM409.938 35.4975C411.505 36.4373 413.231 36.87 414.986 36.87V26.87C414.931 26.87 414.93 26.8638 414.968 26.8738C414.985 26.8784 415.006 26.8853 415.028 26.8947C415.05 26.904 415.069 26.9139 415.083 26.9225L409.938 35.4975ZM442.931 41L438.207 42.6406L439.374 46H442.931V41ZM432.481 10.915V5.915H425.451L427.757 12.5556L432.481 10.915ZM444.251 10.915L449.007 9.37247L447.885 5.915H444.251V10.915ZM452.171 35.335V40.335H459.049L456.927 33.7925L452.171 35.335ZM446.506 35.335L441.772 33.7251L439.524 40.335H446.506V35.335ZM454.811 10.915V5.915H451.23L450.077 9.3051L454.811 10.915ZM465.371 10.915L470.127 9.37247L469.005 5.915H465.371V10.915ZM473.291 35.335V40.335H480.169L478.047 33.7925L473.291 35.335ZM467.791 35.335L463.05 33.7443L460.839 40.335H467.791V35.335ZM475.986 10.915V5.915H472.389L471.245 9.32425L475.986 10.915ZM486.876 10.915L491.599 12.5556L493.905 5.915H486.876V10.915ZM476.426 41V46H479.982L481.149 42.6406L476.426 41ZM464.326 41L459.573 42.5528L460.699 46H464.326V41ZM458.001 21.64V16.64H451.107L453.248 23.1928L458.001 21.64ZM461.631 21.64L466.363 23.2534L468.618 16.64H461.631V21.64ZM455.031 41V46H458.609L459.763 42.6134L455.031 41ZM447.654 39.3594L437.204 9.2744L427.757 12.5556L438.207 42.6406L447.654 39.3594ZM432.481 15.915H444.251V5.915H432.481V15.915ZM439.494 12.4575L447.414 36.8775L456.927 33.7925L449.007 9.37247L439.494 12.4575ZM452.171 30.335H446.506V40.335H452.171V30.335ZM451.239 36.9449L459.544 12.5249L450.077 9.3051L441.772 33.7251L451.239 36.9449ZM454.811 15.915H465.371V5.915H454.811V15.915ZM460.614 12.4575L468.534 36.8775L478.047 33.7925L470.127 9.37247L460.614 12.4575ZM473.291 30.335H467.791V40.335H473.291V30.335ZM472.531 36.9257L480.726 12.5057L471.245 9.32425L463.05 33.7443L472.531 36.9257ZM475.986 15.915H486.876V5.915H475.986V15.915ZM482.152 9.2744L471.702 39.3594L481.149 42.6406L491.599 12.5556L482.152 9.2744ZM476.426 36H464.326V46H476.426V36ZM469.078 39.4472L462.753 20.0872L453.248 23.1928L459.573 42.5528L469.078 39.4472ZM458.001 26.64H461.631V16.64H458.001V26.64ZM456.898 20.0266L450.298 39.3866L459.763 42.6134L466.363 23.2534L456.898 20.0266ZM455.031 36H442.931V46H455.031V36ZM516.441 11.795L514.171 16.2495L514.205 16.2673L514.241 16.2846L516.441 11.795ZM520.841 16.14L516.437 18.5056L516.453 18.537L516.471 18.5682L520.841 16.14ZM522.491 41V46H527.491V41H522.491ZM510.061 41H505.061V46H510.061V41ZM509.071 22.025L505.202 25.1912L505.238 25.2355L505.275 25.279L509.071 22.025ZM504.011 21.42L506.34 25.8446L506.381 25.8232L506.421 25.8011L504.011 21.42ZM502.306 23.29L497.834 21.0539L497.796 21.1297L497.761 21.2067L502.306 23.29ZM501.701 41V46H506.701V41H501.701ZM489.271 41H484.271V46H489.271V41ZM489.271 10.915V5.915H484.271V10.915H489.271ZM501.096 10.915H506.096V5.915H501.096V10.915ZM501.096 19.715L497.444 23.1294L506.096 32.3857V19.715H501.096ZM498.731 17.185L494.288 14.8918L492.672 18.0242L495.079 20.5994L498.731 17.185ZM503.461 12.07L501.006 7.71424L500.989 7.72392L500.972 7.73373L503.461 12.07ZM510.171 15.365C511.773 15.365 513.072 15.6897 514.171 16.2495L518.712 7.34047C516.071 5.99365 513.19 5.365 510.171 5.365V15.365ZM514.241 16.2846C515.096 16.7041 515.826 17.3697 516.437 18.5056L525.246 13.7744C523.73 10.9503 521.526 8.71923 518.642 7.30539L514.241 16.2846ZM516.471 18.5682C517.028 19.5708 517.491 21.2201 517.491 23.84H527.491C527.491 20.1532 526.855 16.6692 525.212 13.7118L516.471 18.5682ZM517.491 23.84V41H527.491V23.84H517.491ZM522.491 36H510.061V46H522.491V36ZM515.061 41V25.985H505.061V41H515.061ZM515.061 25.985C515.061 23.8118 514.735 20.949 512.868 18.771L505.275 25.279C504.958 24.9086 504.925 24.6528 504.963 24.8052C505 24.9521 505.061 25.3182 505.061 25.985H515.061ZM512.941 18.8588C511.238 16.7768 508.858 15.815 506.376 15.815V25.815C506.347 25.815 506.142 25.8076 505.855 25.6788C505.556 25.5445 505.333 25.3519 505.202 25.1912L512.941 18.8588ZM506.376 15.815C504.697 15.815 503.079 16.2263 501.602 17.0389L506.421 25.8011C506.427 25.798 506.426 25.7989 506.419 25.8015C506.412 25.8043 506.403 25.8075 506.392 25.8103C506.381 25.8131 506.372 25.8145 506.368 25.8151C506.363 25.8156 506.365 25.815 506.376 25.815V15.815ZM501.683 16.9954C499.851 17.9593 498.624 19.4742 497.834 21.0539L506.779 25.5261C506.826 25.431 506.83 25.452 506.758 25.5313C506.679 25.6173 506.541 25.7391 506.34 25.8446L501.683 16.9954ZM497.761 21.2067C496.939 23.0016 496.701 24.9997 496.701 26.865H506.701C506.701 26.3285 506.738 25.9413 506.783 25.678C506.828 25.4116 506.871 25.3314 506.852 25.3733L497.761 21.2067ZM496.701 26.865V41H506.701V26.865H496.701ZM501.701 36H489.271V46H501.701V36ZM494.271 41V10.915H484.271V41H494.271ZM489.271 15.915H501.096V5.915H489.271V15.915ZM496.096 10.915V19.715H506.096V10.915H496.096ZM504.749 16.3006L502.384 13.7706L495.079 20.5994L497.444 23.1294L504.749 16.3006ZM503.175 19.4782C503.962 17.9533 504.903 17.0077 505.951 16.4063L500.972 7.73373C498.06 9.40562 495.848 11.8701 494.288 14.8918L503.175 19.4782ZM505.917 16.4258C507.138 15.7374 508.52 15.365 510.171 15.365V5.365C506.909 5.365 503.819 6.12924 501.006 7.71424L505.917 16.4258Z" fill="#4B7399" mask="url(#path-1-outside-1_17_88)"/>
</svg>
